<svg width="320" height="320" viewBox="0 0 320 320" fill="none" xmlns="http://www.w3.org/2000/svg">
<path fill-rule="evenodd" clip-rule="evenodd" d="M170.069 130L200.276 160H85C76.7157 160 70 153.284 70 145C70 136.716 76.7157 130 85 130H170.069ZM230.069 130H235C243.284 130 250 136.716 250 145C250 153.284 243.284 160 235 160H200.276L230.069 130Z" fill="black"/>
<path d="M70 195C70 186.716 76.7157 180 85 180H235C243.284 180 250 186.716 250 195V195C250 203.284 243.284 210 235 210H85C76.7157 210 70 203.284 70 195V195Z" fill="black"/>
<path d="M70 230H250V230C250 246.569 236.569 260 220 260H100C83.4315 260 70 246.569 70 230V230Z" fill="black"/>
<path fill-rule="evenodd" clip-rule="evenodd" d="M250 110C250 90 239.5 60.5 160 60.5C80.5 60.5 70 90 70 110H250ZM120 96C125.523 96 130 91.5229 130 86C130 80.4771 125.523 76 120 76C114.477 76 110 80.4771 110 86C110 91.5229 114.477 96 120 96ZM170 86C170 91.5229 165.523 96 160 96C154.477 96 150 91.5229 150 86C150 80.4771 154.477 76 160 76C165.523 76 170 80.4771 170 86ZM200 96C205.523 96 210 91.5229 210 86C210 80.4771 205.523 76 200 76C194.477 76 190 80.4771 190 86C190 91.5229 194.477 96 200 96Z" fill="black"/>
</svg>
