<svg width="320" height="320" viewBox="0 0 320 320" fill="none" xmlns="http://www.w3.org/2000/svg">
<path fill-rule="evenodd" clip-rule="evenodd" d="M170.069 119.5L200.276 149.5H85C76.7157 149.5 70 142.784 70 134.5C70 126.216 76.7157 119.5 85 119.5H170.069ZM230.069 119.5H235C243.284 119.5 250 126.216 250 134.5C250 142.784 243.284 149.5 235 149.5H200.276L230.069 119.5Z" fill="black"/>
<path d="M70 184.5C70 176.216 76.7157 169.5 85 169.5H235C243.284 169.5 250 176.216 250 184.5V184.5C250 192.784 243.284 199.5 235 199.5H85C76.7157 199.5 70 192.784 70 184.5V184.5Z" fill="black"/>
<path d="M70 219.5H250V219.5C250 236.069 236.569 249.5 220 249.5H100C83.4315 249.5 70 236.069 70 219.5V219.5Z" fill="black"/>
<path fill-rule="evenodd" clip-rule="evenodd" d="M250 99.5C250 79.5 239.5 50 160 50C80.5 50 70 79.5 70 99.5H250ZM120 85.5C125.523 85.5 130 81.0229 130 75.5C130 69.9771 125.523 65.5 120 65.5C114.477 65.5 110 69.9771 110 75.5C110 81.0229 114.477 85.5 120 85.5ZM170 75.5C170 81.0229 165.523 85.5 160 85.5C154.477 85.5 150 81.0229 150 75.5C150 69.9771 154.477 65.5 160 65.5C165.523 65.5 170 69.9771 170 75.5ZM200 85.5C205.523 85.5 210 81.0229 210 75.5C210 69.9771 205.523 65.5 200 65.5C194.477 65.5 190 69.9771 190 75.5C190 81.0229 194.477 85.5 200 85.5Z" fill="black"/>
</svg>
