<svg width="32" height="32" viewBox="0 0 32 32" fill="none" xmlns="http://www.w3.org/2000/svg">
<path d="M15.8516 28.293C14.2422 28.293 12.7266 27.9844 11.3047 27.3672C9.89062 26.7578 8.64062 25.9141 7.55469 24.8359C6.47656 23.75 5.62891 22.5 5.01172 21.0859C4.40234 19.6641 4.09766 18.1484 4.09766 16.5391C4.09766 14.9297 4.40234 13.418 5.01172 12.0039C5.62891 10.582 6.47656 9.33203 7.55469 8.25391C8.63281 7.16797 9.87891 6.32031 11.293 5.71094C12.7148 5.09375 14.2305 4.78516 15.8398 4.78516C17.4492 4.78516 18.9648 5.09375 20.3867 5.71094C21.8086 6.32031 23.0586 7.16797 24.1367 8.25391C25.2148 9.33203 26.0625 10.582 26.6797 12.0039C27.2969 13.418 27.6055 14.9297 27.6055 16.5391C27.6055 18.1484 27.2969 19.6641 26.6797 21.0859C26.0625 22.5 25.2148 23.75 24.1367 24.8359C23.0586 25.9141 21.8086 26.7578 20.3867 27.3672C18.9727 27.9844 17.4609 28.293 15.8516 28.293ZM15.8516 26.7812C17.2656 26.7812 18.5898 26.5156 19.8242 25.9844C21.0664 25.4531 22.1562 24.7188 23.0938 23.7812C24.0391 22.8438 24.7734 21.7578 25.2969 20.5234C25.8281 19.2812 26.0938 17.9531 26.0938 16.5391C26.0938 15.125 25.8281 13.8008 25.2969 12.5664C24.7656 11.3242 24.0312 10.2344 23.0938 9.29688C22.1562 8.35156 21.0664 7.61719 19.8242 7.09375C18.5898 6.5625 17.2617 6.29688 15.8398 6.29688C14.4258 6.29688 13.0977 6.5625 11.8555 7.09375C10.6211 7.61719 9.53516 8.35156 8.59766 9.29688C7.66797 10.2344 6.9375 11.3242 6.40625 12.5664C5.88281 13.8008 5.62109 15.125 5.62109 16.5391C5.62109 17.9531 5.88281 19.2812 6.40625 20.5234C6.9375 21.7578 7.67188 22.8438 8.60938 23.7812C9.54688 24.7188 10.6328 25.4531 11.8672 25.9844C13.1016 26.5156 14.4297 26.7812 15.8516 26.7812ZM23.8086 24.168C23.0977 24.8789 22.2891 25.4844 21.3828 25.9844C20.4766 26.4922 19.543 26.8789 18.582 27.1445C17.6289 27.4102 16.7188 27.543 15.8516 27.543C15 27.543 14.0898 27.4062 13.1211 27.1328C12.1523 26.8672 11.2109 26.4805 10.2969 25.9727C9.38281 25.4727 8.58203 24.8711 7.89453 24.168L7.91797 24.0508C8.13672 23.4961 8.60547 22.9414 9.32422 22.3867C10.0508 21.832 10.9688 21.3711 12.0781 21.0039C13.1875 20.6367 14.4453 20.4531 15.8516 20.4531C17.2578 20.4531 18.5195 20.6367 19.6367 21.0039C20.7539 21.3711 21.668 21.8359 22.3789 22.3984C23.0977 22.9531 23.5664 23.5117 23.7852 24.0742L23.8086 24.168ZM15.8516 18.4492C15.1016 18.4414 14.4258 18.2461 13.8242 17.8633C13.2227 17.4727 12.7461 16.9453 12.3945 16.2812C12.043 15.6172 11.8633 14.8672 11.8555 14.0312C11.8477 13.25 12.0234 12.5312 12.3828 11.875C12.7422 11.2188 13.2227 10.6953 13.8242 10.3047C14.4336 9.90625 15.1094 9.70703 15.8516 9.70703C16.5938 9.70703 17.2656 9.90625 17.8672 10.3047C18.4688 10.6953 18.9492 11.2188 19.3086 11.875C19.668 12.5312 19.8477 13.25 19.8477 14.0312C19.8477 14.8672 19.6719 15.6211 19.3203 16.293C18.9688 16.957 18.4883 17.4844 17.8789 17.875C17.2773 18.2578 16.6016 18.4492 15.8516 18.4492Z" fill="black"/>
</svg>
