<svg width="26" height="26" viewBox="0 0 26 26" fill="none" xmlns="http://www.w3.org/2000/svg">
<path d="M12.9445 12.7931L10.3933 3.27182M12.9445 12.7931L15.6067 22.7283M12.9445 12.7931L20.3068 5.4961M12.9445 12.7931L5.58227 20.0901M12.9445 12.7931L2.92014 10.1548M12.9445 12.7931L22.9689 15.4313" stroke="black" stroke-width="1.75" stroke-linecap="round"/>
<path d="M7.84317 6.17365L11.3473 6.83202L14.0527 4.50981M16.5219 5.44549L17.3205 8.42606L20.8246 9.08443M21.6232 12.065L19.4352 14.2485L19.7164 17.3678M18.0459 19.4127L14.5418 18.7543L11.8364 21.0765M9.36722 20.1408L8.56858 17.1603L5.0645 16.5019M4.26585 13.5213L6.9713 11.1991L6.17265 8.21855" stroke="black" stroke-width="1.75" stroke-linecap="round"/>
</svg>
