<svg width="25" height="20" viewBox="0 0 25 20" fill="none" xmlns="http://www.w3.org/2000/svg">
<g clip-path="url(#clip0_102_186)">
<path d="M1.44336 17.123C0.986328 17.123 0.652344 16.833 0.652344 16.4287C0.652344 16.3145 0.678711 16.1826 0.749023 15.9893L4.82715 4.95898C5.02051 4.44043 5.3457 4.19434 5.86426 4.19434C6.34766 4.19434 6.66406 4.43164 6.85742 4.9502L10.9443 15.9893C11.0146 16.1826 11.041 16.3145 11.041 16.4287C11.041 16.833 10.707 17.123 10.25 17.123C9.85449 17.123 9.62598 16.9385 9.47656 16.5166L8.35156 13.3701H3.33301L2.2168 16.5166C2.06738 16.9385 1.83887 17.123 1.44336 17.123ZM3.79004 12.0254H7.90332L5.87305 6.24219H5.82031L3.79004 12.0254ZM13.8096 17.0879C13.2471 17.0879 12.8076 16.6484 12.8076 16.0859C12.8076 15.5234 13.2471 15.084 13.8096 15.084C14.3721 15.084 14.8115 15.5234 14.8115 16.0859C14.8115 16.6484 14.3721 17.0879 13.8096 17.0879ZM18.1777 17.0879C17.6152 17.0879 17.1758 16.6484 17.1758 16.0859C17.1758 15.5234 17.6152 15.084 18.1777 15.084C18.7402 15.084 19.1797 15.5234 19.1797 16.0859C19.1797 16.6484 18.7402 17.0879 18.1777 17.0879ZM22.5459 17.0879C21.9834 17.0879 21.5439 16.6484 21.5439 16.0859C21.5439 15.5234 21.9834 15.084 22.5459 15.084C23.1084 15.084 23.5479 15.5234 23.5479 16.0859C23.5479 16.6484 23.1084 17.0879 22.5459 17.0879Z" fill="black"/>
</g>
<defs>
<clipPath id="clip0_102_186">
<rect width="25" height="20" fill="white"/>
</clipPath>
</defs>
</svg>
