<svg width="21" height="20" viewBox="0 0 21 20" fill="none" xmlns="http://www.w3.org/2000/svg">
<g clip-path="url(#clip0_102_188)">
<path d="M1.5791 17.123C1.12207 17.123 0.788086 16.833 0.788086 16.4287C0.788086 16.3145 0.814453 16.1826 0.884766 15.9893L4.96289 4.95898C5.15625 4.44043 5.48145 4.19434 6 4.19434C6.4834 4.19434 6.7998 4.43164 6.99316 4.9502L11.0801 15.9893C11.1504 16.1826 11.1768 16.3145 11.1768 16.4287C11.1768 16.833 10.8428 17.123 10.3857 17.123C9.99023 17.123 9.76172 16.9385 9.6123 16.5166L8.4873 13.3701H3.46875L2.35254 16.5166C2.20312 16.9385 1.97461 17.123 1.5791 17.123ZM3.92578 12.0254H8.03906L6.00879 6.24219H5.95605L3.92578 12.0254ZM15.3164 17.1582C13.4971 17.1582 12.2754 16.0596 12.2754 14.416C12.2754 12.8516 13.4795 11.8672 15.5889 11.7441L18.2168 11.5947V10.8301C18.2168 9.71387 17.4785 9.0459 16.2129 9.0459C15.2197 9.0459 14.543 9.40625 14.0332 10.3115C13.8926 10.5664 13.6904 10.6807 13.4004 10.6807C13.0049 10.6807 12.7236 10.4082 12.7236 9.99512C12.7236 9.80176 12.7852 9.58203 12.9082 9.3623C13.4268 8.36035 14.7627 7.70117 16.248 7.70117C18.3926 7.70117 19.7461 8.86133 19.7461 10.6807V16.3848C19.7461 16.8418 19.4473 17.1582 19.0254 17.1582C18.5947 17.1582 18.2959 16.8418 18.2959 16.3848V15.4268H18.2607C17.7158 16.4727 16.5469 17.1582 15.3164 17.1582ZM15.6592 15.8574C17.1006 15.8574 18.2168 14.8467 18.2168 13.5283V12.7812L15.7646 12.9307C14.5342 13.0098 13.8311 13.5547 13.8311 14.416C13.8311 15.2861 14.5605 15.8574 15.6592 15.8574Z" fill="black"/>
</g>
<defs>
<clipPath id="clip0_102_188">
<rect width="21" height="20" fill="white"/>
</clipPath>
</defs>
</svg>
