<svg width="19" height="20" viewBox="0 0 19 20" fill="none" xmlns="http://www.w3.org/2000/svg">
<g clip-path="url(#clip0_101_179)">
<path d="M4.53418 19.9795C4.25879 19.9795 4.04492 19.8916 3.89258 19.7158C3.74023 19.54 3.66406 19.2939 3.66406 18.9775V3.75488C3.66406 2.94629 3.86621 2.33691 4.27051 1.92676C4.6748 1.5166 5.27832 1.31152 6.08105 1.31152H12.9189C13.7217 1.31152 14.3252 1.5166 14.7295 1.92676C15.1338 2.33691 15.3359 2.94629 15.3359 3.75488V18.9775C15.3359 19.2939 15.2598 19.54 15.1074 19.7158C14.9551 19.8916 14.7412 19.9795 14.4658 19.9795C14.2666 19.9795 14.082 19.9121 13.9121 19.7773C13.748 19.6484 13.4902 19.417 13.1387 19.083L9.5791 15.5322C9.52637 15.4795 9.47363 15.4795 9.4209 15.5322L5.86133 19.083C5.50977 19.4229 5.24902 19.6572 5.0791 19.7861C4.90918 19.915 4.72754 19.9795 4.53418 19.9795ZM5.17578 17.8877L9.06934 14.0557C9.19824 13.9326 9.3418 13.8711 9.5 13.8711C9.6582 13.8711 9.80176 13.9326 9.93066 14.0557L13.8242 17.8877C13.8887 17.9463 13.9502 17.9668 14.0088 17.9492C14.0674 17.9375 14.0967 17.8877 14.0967 17.7998V3.77246C14.0967 3.36816 13.9912 3.06348 13.7803 2.8584C13.5752 2.65332 13.2705 2.55078 12.8662 2.55078H6.14258C5.73242 2.55078 5.42188 2.65332 5.21094 2.8584C5.00586 3.06348 4.90332 3.36816 4.90332 3.77246V17.7998C4.90332 17.8877 4.93262 17.9375 4.99121 17.9492C5.0498 17.9668 5.11133 17.9463 5.17578 17.8877Z" fill="black"/>
</g>
<defs>
<clipPath id="clip0_101_179">
<rect width="19" height="20" fill="white"/>
</clipPath>
</defs>
</svg>
