<svg width="28" height="20" viewBox="0 0 28 20" fill="none" xmlns="http://www.w3.org/2000/svg">
<g clip-path="url(#clip0_77_100)">
<path d="M13.7109 18.1602C12.5508 18.1602 11.4521 18.0166 10.415 17.7295C9.37793 17.4482 8.41699 17.0762 7.53223 16.6133C6.64746 16.1504 5.85059 15.6406 5.1416 15.084C4.43848 14.5215 3.83496 13.959 3.33105 13.3965C2.83301 12.834 2.45215 12.3125 2.18848 11.832C1.9248 11.3516 1.79297 10.9619 1.79297 10.6631C1.79297 10.3643 1.9248 9.97461 2.18848 9.49414C2.45801 9.01367 2.8418 8.49219 3.33984 7.92969C3.84375 7.36719 4.44727 6.80762 5.15039 6.25098C5.85938 5.68848 6.65625 5.17578 7.54102 4.71289C8.42578 4.25 9.38672 3.87793 10.4238 3.59668C11.4609 3.30957 12.5566 3.16602 13.7109 3.16602C14.877 3.16602 15.9785 3.30957 17.0156 3.59668C18.0586 3.87793 19.0225 4.25 19.9072 4.71289C20.7979 5.17578 21.5918 5.68848 22.2891 6.25098C22.9922 6.80762 23.5898 7.36719 24.082 7.92969C24.5801 8.49219 24.9609 9.01367 25.2246 9.49414C25.4883 9.97461 25.6201 10.3643 25.6201 10.6631C25.6201 10.9619 25.4883 11.3516 25.2246 11.832C24.9668 12.3125 24.5889 12.834 24.0908 13.3965C23.5928 13.959 22.9922 14.5215 22.2891 15.084C21.5918 15.6406 20.8008 16.1504 19.916 16.6133C19.0312 17.0762 18.0674 17.4482 17.0244 17.7295C15.9873 18.0166 14.8828 18.1602 13.7109 18.1602ZM13.7109 16.9033C14.6895 16.9033 15.627 16.7832 16.5234 16.543C17.4199 16.2969 18.2578 15.9746 19.0371 15.5762C19.8223 15.1719 20.5312 14.7324 21.1641 14.2578C21.8027 13.7773 22.3506 13.3057 22.8076 12.8428C23.2646 12.374 23.6162 11.9463 23.8623 11.5596C24.1084 11.1729 24.2314 10.874 24.2314 10.6631C24.2314 10.4814 24.1084 10.2061 23.8623 9.83691C23.6162 9.46191 23.2646 9.03711 22.8076 8.5625C22.3506 8.08789 21.8027 7.61035 21.1641 7.12988C20.5312 6.64941 19.8223 6.2041 19.0371 5.79395C18.2578 5.38379 17.4199 5.05273 16.5234 4.80078C15.627 4.54883 14.6895 4.42285 13.7109 4.42285C12.7324 4.42285 11.792 4.54883 10.8896 4.80078C9.99316 5.05273 9.15234 5.38379 8.36719 5.79395C7.58203 6.2041 6.87305 6.64941 6.24023 7.12988C5.60742 7.61035 5.05957 8.08789 4.59668 8.5625C4.13965 9.03711 3.78809 9.46191 3.54199 9.83691C3.30176 10.2061 3.18164 10.4814 3.18164 10.6631C3.18164 10.874 3.30176 11.1729 3.54199 11.5596C3.78809 11.9463 4.13965 12.374 4.59668 12.8428C5.05957 13.3057 5.60742 13.7773 6.24023 14.2578C6.87305 14.7324 7.58203 15.1719 8.36719 15.5762C9.15234 15.9746 9.99316 16.2969 10.8896 16.543C11.792 16.7832 12.7324 16.9033 13.7109 16.9033ZM13.7109 15.5762C13.0312 15.5762 12.3926 15.4502 11.7949 15.1982C11.1973 14.9404 10.6729 14.5859 10.2217 14.1348C9.77051 13.6836 9.41602 13.1592 9.1582 12.5615C8.90039 11.9639 8.77148 11.3252 8.77148 10.6455C8.77148 9.96582 8.90039 9.32715 9.1582 8.72949C9.41602 8.13184 9.77051 7.60742 10.2217 7.15625C10.6729 6.70508 11.1973 6.35352 11.7949 6.10156C12.3926 5.84375 13.0312 5.71484 13.7109 5.71484C14.3906 5.71484 15.0264 5.84375 15.6182 6.10156C16.2158 6.35352 16.7402 6.70508 17.1914 7.15625C17.6484 7.60742 18.0029 8.13184 18.2549 8.72949C18.5127 9.32715 18.6416 9.96582 18.6416 10.6455C18.6416 11.3252 18.5127 11.9639 18.2549 12.5615C18.0029 13.1592 17.6484 13.6836 17.1914 14.1348C16.7402 14.5859 16.2158 14.9404 15.6182 15.1982C15.0264 15.4502 14.3906 15.5762 13.7109 15.5762ZM13.7109 12.2627C14.1562 12.2627 14.5342 12.1074 14.8447 11.7969C15.1611 11.4805 15.3193 11.0996 15.3193 10.6543C15.3193 10.209 15.1611 9.83105 14.8447 9.52051C14.5342 9.2041 14.1562 9.0459 13.7109 9.0459C13.2656 9.0459 12.8848 9.2041 12.5684 9.52051C12.2578 9.83105 12.1025 10.209 12.1025 10.6543C12.1025 11.0996 12.2578 11.4805 12.5684 11.7969C12.8848 12.1074 13.2656 12.2627 13.7109 12.2627Z" fill="black"/>
</g>
<defs>
<clipPath id="clip0_77_100">
<rect width="28" height="20" fill="white"/>
</clipPath>
</defs>
</svg>
