<svg width="14" height="20" viewBox="0 0 14 20" fill="none" xmlns="http://www.w3.org/2000/svg">
<g clip-path="url(#clip0_77_133)">
<path d="M2.96582 16.8965C2.96582 16.7852 2.99512 16.6826 3.05371 16.5889C3.1123 16.4951 3.19141 16.4189 3.29102 16.3604C3.39648 16.3076 3.5166 16.2812 3.65137 16.2812H6.77148V7.75586H4.02051C3.82715 7.75586 3.66016 7.69434 3.51953 7.57129C3.38477 7.44824 3.31738 7.29883 3.31738 7.12305C3.31738 7.01172 3.34961 6.91211 3.41406 6.82422C3.47852 6.73047 3.56055 6.65723 3.66016 6.60449C3.76562 6.5459 3.88574 6.5166 4.02051 6.5166H7.53613C7.72363 6.5166 7.88184 6.58398 8.01074 6.71875C8.14551 6.85352 8.21289 7.02051 8.21289 7.21973V16.2812H10.7969C10.9199 16.2812 11.0312 16.3076 11.1309 16.3604C11.2363 16.4189 11.3213 16.4951 11.3857 16.5889C11.4502 16.6826 11.4824 16.7852 11.4824 16.8965C11.4824 17.0137 11.4502 17.1191 11.3857 17.2129C11.3213 17.3066 11.2363 17.3828 11.1309 17.4414C11.0312 17.5 10.9199 17.5293 10.7969 17.5293H3.65137C3.5166 17.5293 3.39648 17.5 3.29102 17.4414C3.19141 17.3828 3.1123 17.3066 3.05371 17.2129C2.99512 17.1191 2.96582 17.0137 2.96582 16.8965ZM7.0791 3.25586C6.83887 3.25586 6.61621 3.19727 6.41113 3.08008C6.21191 2.96289 6.05371 2.80762 5.93652 2.61426C5.8252 2.41504 5.76953 2.19238 5.76953 1.94629C5.76953 1.70605 5.8252 1.48633 5.93652 1.28711C6.05371 1.08789 6.21191 0.929687 6.41113 0.8125C6.61621 0.695313 6.83887 0.636719 7.0791 0.636719C7.31934 0.636719 7.53613 0.695313 7.72949 0.8125C7.92871 0.929687 8.08691 1.08789 8.2041 1.28711C8.32129 1.48633 8.37988 1.70605 8.37988 1.94629C8.37988 2.19238 8.32129 2.41504 8.2041 2.61426C8.08691 2.80762 7.92871 2.96289 7.72949 3.08008C7.53613 3.19727 7.31934 3.25586 7.0791 3.25586Z" fill="black"/>
</g>
<defs>
<clipPath id="clip0_77_133">
<rect width="14" height="20" fill="white"/>
</clipPath>
</defs>
</svg>
