<svg width="21" height="20" viewBox="0 0 21 20" fill="none" xmlns="http://www.w3.org/2000/svg">
<g clip-path="url(#clip0_77_131)">
<path d="M10.5 18.5488C9.27539 18.5488 8.12402 18.3174 7.0459 17.8545C5.97363 17.3916 5.03027 16.7559 4.21582 15.9473C3.40137 15.1328 2.7627 14.1865 2.2998 13.1084C1.83691 12.0303 1.60547 10.8789 1.60547 9.6543C1.60547 8.42969 1.83691 7.27832 2.2998 6.2002C2.7627 5.12207 3.40137 4.17578 4.21582 3.36133C5.03027 2.54687 5.97363 1.91113 7.0459 1.4541C8.12402 0.991211 9.27539 0.759766 10.5 0.759766C11.7305 0.759766 12.8818 0.991211 13.9541 1.4541C15.0322 1.91113 15.9785 2.54687 16.793 3.36133C17.6074 4.17578 18.2432 5.12207 18.7002 6.2002C19.1631 7.27832 19.3945 8.42969 19.3945 9.6543C19.3945 10.8789 19.1631 12.0303 18.7002 13.1084C18.2432 14.1865 17.6074 15.1328 16.793 15.9473C15.9785 16.7559 15.0322 17.3916 13.9541 17.8545C12.8818 18.3174 11.7305 18.5488 10.5 18.5488ZM10.5 17.2217C11.543 17.2217 12.5215 17.0254 13.4355 16.6328C14.3496 16.2402 15.1523 15.6982 15.8438 15.0068C16.541 14.3096 17.0859 13.5039 17.4785 12.5898C17.8711 11.6758 18.0674 10.6973 18.0674 9.6543C18.0674 8.61133 17.8711 7.63281 17.4785 6.71875C17.0859 5.79883 16.541 4.99316 15.8438 4.30176C15.1523 3.61035 14.3496 3.06836 13.4355 2.67578C12.5215 2.2832 11.543 2.08691 10.5 2.08691C9.45703 2.08691 8.47852 2.2832 7.56445 2.67578C6.65039 3.06836 5.84473 3.61035 5.14746 4.30176C4.45605 4.99316 3.91406 5.79883 3.52148 6.71875C3.12891 7.63281 2.93262 8.61133 2.93262 9.6543C2.93262 10.6973 3.12891 11.6758 3.52148 12.5898C3.91406 13.5039 4.45605 14.3096 5.14746 15.0068C5.84473 15.6982 6.65039 16.2402 7.56445 16.6328C8.47852 17.0254 9.45703 17.2217 10.5 17.2217ZM8.95312 14.541C8.78906 14.541 8.65137 14.4883 8.54004 14.3828C8.42871 14.2715 8.37305 14.1367 8.37305 13.9785C8.37305 13.8203 8.42871 13.6885 8.54004 13.583C8.65137 13.4775 8.78906 13.4248 8.95312 13.4248H10.1221V9.15332H9.08496C8.9209 9.15332 8.7832 9.10059 8.67188 8.99512C8.56055 8.88379 8.50488 8.74902 8.50488 8.59082C8.50488 8.43848 8.56055 8.30957 8.67188 8.2041C8.7832 8.09277 8.9209 8.03711 9.08496 8.03711H10.7549C10.9541 8.03711 11.1064 8.10156 11.2119 8.23047C11.3174 8.35938 11.3701 8.5293 11.3701 8.74023V13.4248H12.5391C12.7031 13.4248 12.8408 13.4775 12.9521 13.583C13.0635 13.6885 13.1191 13.8203 13.1191 13.9785C13.1191 14.1367 13.0635 14.2715 12.9521 14.3828C12.8408 14.4883 12.7031 14.541 12.5391 14.541H8.95312ZM10.4385 6.50781C10.1455 6.50781 9.89355 6.40527 9.68262 6.2002C9.47754 5.99512 9.375 5.74609 9.375 5.45312C9.375 5.1543 9.47754 4.90234 9.68262 4.69727C9.89355 4.48633 10.1455 4.38086 10.4385 4.38086C10.7373 4.38086 10.9893 4.48633 11.1943 4.69727C11.3994 4.90234 11.502 5.1543 11.502 5.45312C11.502 5.74609 11.3994 5.99512 11.1943 6.2002C10.9893 6.40527 10.7373 6.50781 10.4385 6.50781Z" fill="black"/>
</g>
<defs>
<clipPath id="clip0_77_131">
<rect width="21" height="20" fill="white"/>
</clipPath>
</defs>
</svg>
