<svg width="21" height="20" viewBox="0 0 21 20" fill="none" xmlns="http://www.w3.org/2000/svg">
<g clip-path="url(#clip0_77_135)">
<path d="M10.5 18.5488C9.27539 18.5488 8.12402 18.3174 7.0459 17.8545C5.97363 17.3916 5.03027 16.7529 4.21582 15.9385C3.40137 15.124 2.7627 14.1807 2.2998 13.1084C1.83691 12.0303 1.60547 10.8789 1.60547 9.6543C1.60547 8.42969 1.83691 7.28125 2.2998 6.20898C2.7627 5.13086 3.40137 4.18457 4.21582 3.37012C5.03027 2.55566 5.97363 1.91699 7.0459 1.4541C8.12402 0.991211 9.27539 0.759766 10.5 0.759766C11.7246 0.759766 12.876 0.991211 13.9541 1.4541C15.0322 1.91699 15.9785 2.55566 16.793 3.37012C17.6074 4.18457 18.2432 5.13086 18.7002 6.20898C19.1631 7.28125 19.3945 8.42969 19.3945 9.6543C19.3945 10.8789 19.1631 12.0303 18.7002 13.1084C18.2432 14.1807 17.6074 15.124 16.793 15.9385C15.9785 16.7529 15.0322 17.3916 13.9541 17.8545C12.876 18.3174 11.7246 18.5488 10.5 18.5488ZM8.90918 14.6816H12.583C12.7529 14.6816 12.8965 14.6289 13.0137 14.5234C13.1309 14.4121 13.1895 14.2715 13.1895 14.1016C13.1895 13.9434 13.1309 13.8086 13.0137 13.6973C12.8965 13.5801 12.7529 13.5215 12.583 13.5215H11.3965V8.74023C11.3965 8.51758 11.3408 8.33887 11.2295 8.2041C11.124 8.06934 10.9658 8.00195 10.7549 8.00195H9.04102C8.87695 8.00195 8.73633 8.06055 8.61914 8.17773C8.50781 8.28906 8.45215 8.42383 8.45215 8.58203C8.45215 8.74609 8.50781 8.88379 8.61914 8.99512C8.73633 9.10645 8.87695 9.16211 9.04102 9.16211H10.1045V13.5215H8.90918C8.73926 13.5215 8.5957 13.5801 8.47852 13.6973C8.36719 13.8086 8.31152 13.9434 8.31152 14.1016C8.31152 14.2715 8.36719 14.4121 8.47852 14.5234C8.5957 14.6289 8.73926 14.6816 8.90918 14.6816ZM10.4385 6.4375C10.7432 6.4375 11.001 6.33203 11.2119 6.12109C11.4229 5.9043 11.5283 5.64648 11.5283 5.34766C11.5283 5.03711 11.4229 4.77637 11.2119 4.56543C11.001 4.34863 10.7432 4.24023 10.4385 4.24023C10.1338 4.24023 9.87305 4.34863 9.65625 4.56543C9.44531 4.77637 9.33984 5.03711 9.33984 5.34766C9.33984 5.64648 9.44531 5.9043 9.65625 6.12109C9.87305 6.33203 10.1338 6.4375 10.4385 6.4375Z" fill="black"/>
</g>
<defs>
<clipPath id="clip0_77_135">
<rect width="21" height="20" fill="white"/>
</clipPath>
</defs>
</svg>
