<svg width="19" height="20" viewBox="0 0 19 20" fill="none" xmlns="http://www.w3.org/2000/svg">
<g clip-path="url(#clip0_77_137)">
<path d="M10.2031 16.1494C10.2031 16.3369 10.1328 16.498 9.99219 16.6328C9.85742 16.7734 9.69336 16.8438 9.5 16.8438C9.30664 16.8438 9.14258 16.7734 9.00781 16.6328C8.87305 16.498 8.80566 16.3369 8.80566 16.1494V3.15918C8.80566 2.97168 8.87305 2.81055 9.00781 2.67578C9.14258 2.53516 9.30664 2.46484 9.5 2.46484C9.69336 2.46484 9.85742 2.53516 9.99219 2.67578C10.1328 2.81055 10.2031 2.97168 10.2031 3.15918V16.1494ZM3.00488 10.3486C2.81738 10.3486 2.65332 10.2812 2.5127 10.1465C2.37793 10.0117 2.31055 9.84766 2.31055 9.6543C2.31055 9.46094 2.37793 9.29688 2.5127 9.16211C2.65332 9.02148 2.81738 8.95117 3.00488 8.95117H15.9951C16.1826 8.95117 16.3438 9.02148 16.4785 9.16211C16.6191 9.29688 16.6895 9.46094 16.6895 9.6543C16.6895 9.84766 16.6191 10.0117 16.4785 10.1465C16.3438 10.2812 16.1826 10.3486 15.9951 10.3486H3.00488Z" fill="black"/>
</g>
<defs>
<clipPath id="clip0_77_137">
<rect width="19" height="20" fill="white"/>
</clipPath>
</defs>
</svg>
