<svg width="31" height="20" viewBox="0 0 31 20" fill="none" xmlns="http://www.w3.org/2000/svg">
<g clip-path="url(#clip0_77_130)">
<path d="M6.82031 12.8447C6.48633 12.8447 6.19922 12.7275 5.95898 12.4932C5.72461 12.2529 5.60742 11.9658 5.60742 11.6318C5.60742 11.3037 5.72461 11.0225 5.95898 10.7881C6.19922 10.5479 6.48633 10.4277 6.82031 10.4277C7.1543 10.4277 7.43848 10.5479 7.67285 10.7881C7.90723 11.0225 8.02441 11.3037 8.02441 11.6318C8.02441 11.9658 7.90723 12.2529 7.67285 12.4932C7.43848 12.7275 7.1543 12.8447 6.82031 12.8447ZM10.5381 12.8447C10.21 12.8447 9.92578 12.7275 9.68555 12.4932C9.45117 12.2529 9.33398 11.9658 9.33398 11.6318C9.33398 11.3037 9.45117 11.0225 9.68555 10.7881C9.92578 10.5479 10.21 10.4277 10.5381 10.4277C10.8721 10.4277 11.1562 10.5479 11.3906 10.7881C11.6309 11.0225 11.751 11.3037 11.751 11.6318C11.751 11.9658 11.6309 12.2529 11.3906 12.4932C11.1562 12.7275 10.8721 12.8447 10.5381 12.8447ZM14.2646 12.8447C13.9307 12.8447 13.6465 12.7275 13.4121 12.4932C13.1777 12.2529 13.0605 11.9658 13.0605 11.6318C13.0605 11.3037 13.1777 11.0225 13.4121 10.7881C13.6465 10.5479 13.9307 10.4277 14.2646 10.4277C14.5986 10.4277 14.8828 10.5479 15.1172 10.7881C15.3516 11.0225 15.4688 11.3037 15.4688 11.6318C15.4688 11.9658 15.3516 12.2529 15.1172 12.4932C14.8828 12.7275 14.5986 12.8447 14.2646 12.8447ZM18.8525 11.4824L17.1387 12.1943C17.0566 12.2295 16.9805 12.2119 16.9102 12.1416C16.8457 12.0713 16.8311 11.9922 16.8662 11.9043L17.6221 10.2432L25.5146 2.35059L26.7539 3.58984L18.8525 11.4824ZM27.3867 2.96582L26.1475 1.72656L26.833 1.03223C26.9912 0.874023 27.1699 0.794922 27.3691 0.794922C27.5684 0.789062 27.7412 0.853516 27.8877 0.988281L28.0898 1.17285C28.2539 1.33105 28.333 1.5127 28.3271 1.71777C28.3271 1.92285 28.2422 2.11035 28.0723 2.28027L27.3867 2.96582ZM5.87988 17.7402C4.71387 17.7402 3.81445 17.4268 3.18164 16.7998C2.55469 16.1729 2.24121 15.2734 2.24121 14.1016V9.25C2.24121 8.08398 2.55469 7.1875 3.18164 6.56055C3.81445 5.92773 4.71387 5.61133 5.87988 5.61133H20.3818L19.1338 6.87695H5.87988C5.12402 6.87695 4.53809 7.08496 4.12207 7.50098C3.71191 7.91113 3.50684 8.49414 3.50684 9.25V14.1016C3.50684 14.8633 3.71191 15.4521 4.12207 15.8682C4.53809 16.2783 5.12402 16.4834 5.87988 16.4834H20.7246C21.4805 16.4834 22.0635 16.2783 22.4736 15.8682C22.8896 15.4521 23.0977 14.8633 23.0977 14.1016V9.10938L24.3633 7.85254V14.1016C24.3633 15.2734 24.0469 16.1729 23.4141 16.7998C22.7871 17.4268 21.8906 17.7402 20.7246 17.7402H5.87988Z" fill="black"/>
</g>
<defs>
<clipPath id="clip0_77_130">
<rect width="31" height="20" fill="white"/>
</clipPath>
</defs>
</svg>
