<svg width="30.625" height="20" viewBox="0 0 49 32" fill="none" xmlns="http://www.w3.org/2000/svg">
<path d="M10.75 31.3906C9.58333 31.3906 8.52604 31.1042 7.57812 30.5312C6.63021 29.9688 5.875 29.2083 5.3125 28.25C4.75 27.2917 4.46875 26.224 4.46875 25.0469C4.46875 23.8802 4.75 22.8229 5.3125 21.875C5.875 20.9167 6.63021 20.1562 7.57812 19.5938C8.52604 19.0312 9.58333 18.75 10.75 18.75C11.4792 18.75 12.0729 18.8125 12.5312 18.9375C13 19.0521 13.3854 19.1927 13.6875 19.3594C14 19.5156 14.2865 19.6562 14.5469 19.7812C14.8073 19.9062 15.1042 19.9688 15.4375 19.9688C15.6979 19.9688 16 19.8802 16.3438 19.7031L18.7656 18.4219C19.3802 18.1094 19.8073 17.8281 20.0469 17.5781C20.2969 17.3177 20.4792 16.9844 20.5938 16.5781L20.9062 15.4375C21.1458 14.5625 21.5 13.875 21.9688 13.375C22.4479 12.8646 23.1562 12.4427 24.0938 12.1094L37.4375 7.3125C39.3854 6.625 40.9688 6.39062 42.1875 6.60938C43.4167 6.81771 44.1927 7.50521 44.5156 8.67188L18.0781 22.7188C17.7552 22.8854 17.5208 23.0677 17.375 23.2656C17.2396 23.4531 17.151 23.6927 17.1094 23.9844C17.0781 24.2656 17.0625 24.6198 17.0625 25.0469C17.0625 26.224 16.776 27.2917 16.2031 28.25C15.6406 29.2083 14.8802 29.9688 13.9219 30.5312C12.974 31.1042 11.9167 31.3906 10.75 31.3906ZM10.75 28.8281C11.4479 28.8281 12.0781 28.6562 12.6406 28.3125C13.2135 27.9792 13.6667 27.526 14 26.9531C14.3438 26.3802 14.5156 25.7448 14.5156 25.0469C14.5156 24.3594 14.3438 23.7344 14 23.1719C13.6667 22.599 13.2135 22.1458 12.6406 21.8125C12.0781 21.4688 11.4479 21.2969 10.75 21.2969C10.0625 21.2969 9.4375 21.4688 8.875 21.8125C8.3125 22.1458 7.86458 22.599 7.53125 23.1719C7.19792 23.7344 7.03125 24.3594 7.03125 25.0469C7.03125 25.7448 7.19792 26.3802 7.53125 26.9531C7.86458 27.526 8.3125 27.9792 8.875 28.3125C9.4375 28.6562 10.0625 28.8281 10.75 28.8281ZM24.4375 16.6406C24.8021 16.6406 25.1146 16.5156 25.375 16.2656C25.6458 16.0156 25.7812 15.7083 25.7812 15.3438C25.7812 14.9688 25.6458 14.6562 25.375 14.4062C25.1146 14.1562 24.8021 14.0312 24.4375 14.0312C24.0938 14.0312 23.7917 14.1562 23.5312 14.4062C23.2708 14.6562 23.1406 14.9688 23.1406 15.3438C23.1406 15.6979 23.2708 16.0052 23.5312 16.2656C23.7917 16.5156 24.0938 16.6406 24.4375 16.6406ZM10.75 13.6094C9.58333 13.6094 8.52604 13.3281 7.57812 12.7656C6.63021 12.1927 5.875 11.4323 5.3125 10.4844C4.75 9.52604 4.46875 8.46354 4.46875 7.29688C4.46875 6.13021 4.75 5.06771 5.3125 4.10938C5.875 3.15104 6.63021 2.38542 7.57812 1.8125C8.52604 1.23958 9.58333 0.953125 10.75 0.953125C11.9167 0.953125 12.974 1.23958 13.9219 1.8125C14.8802 2.375 15.6406 3.13542 16.2031 4.09375C16.776 5.05208 17.0625 6.11979 17.0625 7.29688C17.0625 7.75521 17.0833 8.13021 17.125 8.42188C17.1771 8.71354 17.2865 8.96354 17.4531 9.17188C17.6198 9.36979 17.8906 9.56771 18.2656 9.76562L21.8125 11.6562V11.75C21.3229 12.0625 20.9219 12.4427 20.6094 12.8906C20.3073 13.3281 20.0625 13.875 19.875 14.5312H19.7812C19.6771 14.4583 19.5573 14.3854 19.4219 14.3125C19.2969 14.2292 19.151 14.1458 18.9844 14.0625L16.3438 12.6562C16 12.4896 15.6979 12.4062 15.4375 12.4062C15.1146 12.4062 14.8177 12.4688 14.5469 12.5938C14.2865 12.7083 14 12.8438 13.6875 13C13.3854 13.1562 13 13.2969 12.5312 13.4219C12.0729 13.5469 11.4792 13.6094 10.75 13.6094ZM10.75 11.0625C11.4479 11.0625 12.0781 10.8906 12.6406 10.5469C13.2135 10.2031 13.6667 9.75 14 9.1875C14.3438 8.61458 14.5156 7.98438 14.5156 7.29688C14.5156 6.58854 14.3438 5.95312 14 5.39062C13.6667 4.81771 13.2135 4.36458 12.6406 4.03125C12.0781 3.6875 11.4479 3.51562 10.75 3.51562C10.0625 3.51562 9.4375 3.6875 8.875 4.03125C8.3125 4.36458 7.86458 4.81771 7.53125 5.39062C7.19792 5.95312 7.03125 6.58854 7.03125 7.29688C7.03125 7.98438 7.19792 8.61458 7.53125 9.1875C7.86458 9.75 8.3125 10.2031 8.875 10.5469C9.4375 10.8906 10.0625 11.0625 10.75 11.0625ZM37.4375 25.0781L25.3438 20.5156V20.3281L31.7969 16.9375L44.5156 23.6562C44.1927 24.8542 43.4219 25.5729 42.2031 25.8125C40.9844 26.0521 39.3958 25.8073 37.4375 25.0781Z" fill="black"/>
</svg>
