<svg width="21" height="20" viewBox="0 0 21 20" fill="none" xmlns="http://www.w3.org/2000/svg">
<g clip-path="url(#clip0_77_102)">
<path d="M5.9043 18.9795C4.73828 18.9795 3.83887 18.6631 3.20605 18.0303C2.5791 17.4033 2.26562 16.5068 2.26562 15.3408V8.6084C2.26562 7.43652 2.5791 6.53711 3.20605 5.91016C3.83887 5.27734 4.73828 4.96094 5.9043 4.96094H7.80273V6.22656H5.9043C5.14844 6.22656 4.5625 6.43457 4.14648 6.85059C3.73633 7.26074 3.53125 7.84668 3.53125 8.6084V15.3408C3.53125 16.0967 3.73633 16.6797 4.14648 17.0898C4.5625 17.5059 5.14844 17.7139 5.9043 17.7139H14.0781C14.8457 17.7139 15.4346 17.5059 15.8447 17.0898C16.2607 16.6797 16.4688 16.0967 16.4688 15.3408V8.6084C16.4688 7.84668 16.2607 7.26074 15.8447 6.85059C15.4346 6.43457 14.8457 6.22656 14.0781 6.22656H12.1797V4.96094H14.0781C15.25 4.96094 16.1494 5.27734 16.7764 5.91016C17.4092 6.53711 17.7256 7.43652 17.7256 8.6084V15.3408C17.7256 16.5068 17.4092 17.4033 16.7764 18.0303C16.1494 18.6631 15.25 18.9795 14.0781 18.9795H5.9043ZM10 0.416992C10.1699 0.416992 10.3164 0.478516 10.4395 0.601562C10.5625 0.71875 10.624 0.859375 10.624 1.02344V10.1025L10.5361 12.335C10.5244 12.4814 10.4688 12.6074 10.3691 12.7129C10.2695 12.8184 10.1465 12.8711 10 12.8711C9.85352 12.8711 9.73047 12.8184 9.63086 12.7129C9.53125 12.6074 9.47559 12.4814 9.46387 12.335L9.37598 10.1025V1.02344C9.37598 0.859375 9.4375 0.71875 9.56055 0.601562C9.68359 0.478516 9.83008 0.416992 10 0.416992ZM7.01172 9.14453C7.1875 9.14453 7.33105 9.20605 7.44238 9.3291L8.89258 10.8584L10 12.0186L11.0986 10.8584L12.5488 9.3291C12.6602 9.20605 12.8037 9.14453 12.9795 9.14453C13.1377 9.14453 13.2725 9.19727 13.3838 9.30273C13.4951 9.4082 13.5508 9.54004 13.5508 9.69824C13.5508 9.84473 13.4893 9.98242 13.3662 10.1113L10.4482 12.9326C10.3721 13.0146 10.2988 13.0703 10.2285 13.0996C10.1582 13.1289 10.082 13.1436 10 13.1436C9.91797 13.1436 9.8418 13.1289 9.77148 13.0996C9.70117 13.0703 9.62793 13.0146 9.55176 12.9326L6.63379 10.1113C6.50488 9.98242 6.44043 9.84473 6.44043 9.69824C6.44043 9.54004 6.49316 9.4082 6.59863 9.30273C6.70996 9.19727 6.84766 9.14453 7.01172 9.14453Z" fill="black"/>
</g>
<defs>
<clipPath id="clip0_77_102">
<rect width="21" height="20" fill="white"/>
</clipPath>
</defs>
</svg>
