<svg width="20" height="20" viewBox="0 0 20 20" fill="none" xmlns="http://www.w3.org/2000/svg">
<g clip-path="url(#clip0_77_94)">
<path d="M4.79395 18.6611C3.62793 18.6611 2.72852 18.3447 2.0957 17.7119C1.46875 17.0791 1.15527 16.1797 1.15527 15.0137V6.88379C1.15527 5.71191 1.46875 4.8125 2.0957 4.18555C2.72852 3.55273 3.62793 3.23633 4.79395 3.23633L12.9766 3.24512C13.1289 3.24512 13.2754 3.25391 13.416 3.27148C13.5566 3.2832 13.6885 3.30371 13.8115 3.33301L12.5986 4.56348C12.4873 4.5459 12.3701 4.53125 12.2471 4.51953C12.1299 4.50781 12.0068 4.50195 11.8779 4.50195H4.79395C4.03809 4.50195 3.45215 4.70703 3.03613 5.11719C2.62598 5.52734 2.4209 6.11328 2.4209 6.875V15.0137C2.4209 15.7812 2.62598 16.3701 3.03613 16.7803C3.45215 17.1904 4.03809 17.3955 4.79395 17.3955H12.9414C13.6973 17.3955 14.2803 17.1904 14.6904 16.7803C15.1064 16.3701 15.3145 15.7812 15.3145 15.0137V7.82422C15.3145 7.71875 15.3086 7.62207 15.2969 7.53418C15.291 7.44043 15.2793 7.34961 15.2617 7.26172L16.4834 6.04883C16.5127 6.17188 16.5361 6.30371 16.5537 6.44434C16.5713 6.58496 16.5801 6.73145 16.5801 6.88379V15.0137C16.5801 16.1797 16.2666 17.0791 15.6396 17.7119C15.0127 18.3447 14.1133 18.6611 12.9414 18.6611H4.79395ZM7.14941 12.9043C7.07324 12.9395 7.00293 12.9248 6.93848 12.8604C6.87988 12.79 6.86816 12.7197 6.90332 12.6494L7.65918 11.085L15.8506 2.89355L16.9668 3.99219L8.7666 12.1924L7.14941 12.9043ZM17.5908 3.37695L16.4746 2.25195L17.0898 1.64551C17.2305 1.51074 17.3887 1.4375 17.5645 1.42578C17.7461 1.41406 17.9014 1.47266 18.0303 1.60156L18.2061 1.78613C18.3525 1.92676 18.4229 2.08789 18.417 2.26953C18.4111 2.44531 18.3379 2.60938 18.1973 2.76172L17.5908 3.37695Z" fill="black"/>
</g>
<defs>
<clipPath id="clip0_77_94">
<rect width="20" height="20" fill="white"/>
</clipPath>
</defs>
</svg>
