<svg width="35" height="20" viewBox="0 0 35 20" fill="none" xmlns="http://www.w3.org/2000/svg">
<g clip-path="url(#clip0_102_183)">
<path d="M3.0166 17.1406C2.85254 17.1406 2.70605 17.085 2.57715 16.9736C2.44824 16.8623 2.38379 16.71 2.38379 16.5166C2.38379 16.3994 2.41309 16.2617 2.47168 16.1035L6.70801 4.88867C6.7959 4.66016 6.91602 4.49023 7.06836 4.37891C7.2207 4.26172 7.41699 4.20312 7.65723 4.20312C7.89746 4.20312 8.09375 4.26172 8.24609 4.37891C8.4043 4.49609 8.52734 4.66895 8.61523 4.89746L12.8516 16.0947C12.8809 16.1768 12.9014 16.25 12.9131 16.3145C12.9307 16.3789 12.9395 16.4434 12.9395 16.5078C12.9395 16.6953 12.8721 16.8477 12.7373 16.9648C12.6025 17.082 12.4473 17.1406 12.2715 17.1406C12.1309 17.1406 11.9961 17.0938 11.8672 17C11.7383 16.9062 11.6357 16.7568 11.5596 16.5518L10.3291 13.2295H4.97656L3.74609 16.5518C3.66992 16.7568 3.56738 16.9062 3.43848 17C3.30957 17.0938 3.16895 17.1406 3.0166 17.1406ZM5.33691 12.0957H9.95996L7.69238 5.9082H7.60449L5.33691 12.0957ZM14.873 17.1406C14.6855 17.1406 14.5303 17.082 14.4072 16.9648C14.29 16.8418 14.2314 16.6748 14.2314 16.4639V5.06445C14.2314 4.85352 14.293 4.68359 14.416 4.55469C14.5391 4.42578 14.6973 4.36133 14.8906 4.36133C15.0898 4.36133 15.251 4.42578 15.374 4.55469C15.4971 4.68359 15.5586 4.85352 15.5586 5.06445V9.74023H15.5762C15.8223 9.0957 16.2236 8.58008 16.7803 8.19336C17.3428 7.80664 17.9902 7.61328 18.7227 7.61328C19.4961 7.61328 20.1758 7.8125 20.7617 8.21094C21.3477 8.60938 21.8018 9.16602 22.124 9.88086C22.4521 10.5898 22.6162 11.4219 22.6162 12.377C22.6162 13.3379 22.4521 14.1758 22.124 14.8906C21.8018 15.5996 21.3477 16.1533 20.7617 16.5518C20.1758 16.9502 19.4902 17.1494 18.7051 17.1494C17.9668 17.1494 17.3164 16.9561 16.7539 16.5693C16.1914 16.1826 15.7871 15.6641 15.541 15.0137H15.5322V16.4639C15.5322 16.6748 15.4678 16.8418 15.3389 16.9648C15.2158 17.082 15.0605 17.1406 14.873 17.1406ZM18.4326 15.9893C19.0068 15.9893 19.5049 15.8428 19.9268 15.5498C20.3486 15.2568 20.6738 14.8408 20.9023 14.3018C21.1367 13.7568 21.2539 13.1152 21.2539 12.377C21.2539 11.6445 21.1367 11.0117 20.9023 10.4785C20.6738 9.93945 20.3486 9.52344 19.9268 9.23047C19.5107 8.9375 19.0127 8.79102 18.4326 8.79102C17.8701 8.79102 17.375 8.94043 16.9473 9.23926C16.5195 9.53223 16.1826 9.95117 15.9365 10.4961C15.6904 11.0352 15.5674 11.668 15.5674 12.3945C15.5674 13.1152 15.6875 13.7451 15.9277 14.2842C16.1738 14.8232 16.5107 15.2422 16.9385 15.541C17.3721 15.8398 17.8701 15.9893 18.4326 15.9893ZM27.8984 17.1494C27.0371 17.1494 26.29 16.9561 25.6572 16.5693C25.0244 16.1768 24.5322 15.626 24.1807 14.917C23.8291 14.208 23.6533 13.3701 23.6533 12.4033C23.6533 11.4424 23.8262 10.6045 24.1719 9.88965C24.5234 9.16895 25.0127 8.60938 25.6396 8.21094C26.2725 7.8125 27.0137 7.61328 27.8633 7.61328C28.4434 7.61328 28.9824 7.71582 29.4805 7.9209C29.9844 8.12598 30.4121 8.40723 30.7637 8.76465C31.1211 9.11621 31.373 9.52344 31.5195 9.98633C31.5371 10.0332 31.5488 10.0889 31.5547 10.1533C31.5664 10.2119 31.5723 10.2646 31.5723 10.3115C31.5723 10.4814 31.5166 10.6191 31.4053 10.7246C31.2998 10.8301 31.1621 10.8828 30.9922 10.8828C30.8516 10.8828 30.7344 10.8506 30.6406 10.7861C30.5469 10.7158 30.459 10.5986 30.377 10.4346C30.1543 9.88965 29.8291 9.47949 29.4014 9.2041C28.9795 8.92285 28.4785 8.78223 27.8984 8.78223C27.0254 8.78223 26.3252 9.10742 25.7979 9.75781C25.2764 10.4023 25.0156 11.2783 25.0156 12.3857C25.0156 13.5049 25.2764 14.3867 25.7979 15.0312C26.3193 15.6699 27.0195 15.9893 27.8984 15.9893C28.5078 15.9893 29.0234 15.8486 29.4453 15.5674C29.8672 15.2861 30.1865 14.8789 30.4033 14.3457C30.4854 14.1758 30.5703 14.0557 30.6582 13.9854C30.752 13.915 30.875 13.8799 31.0273 13.8799C31.1973 13.8799 31.335 13.9355 31.4404 14.0469C31.5518 14.1523 31.6074 14.29 31.6074 14.46C31.6074 14.5127 31.6016 14.5742 31.5898 14.6445C31.5781 14.7148 31.5576 14.7852 31.5283 14.8555C31.3701 15.3066 31.1123 15.7051 30.7549 16.0508C30.3975 16.3906 29.9727 16.6602 29.4805 16.8594C28.9883 17.0527 28.4609 17.1494 27.8984 17.1494Z" fill="black"/>
</g>
<defs>
<clipPath id="clip0_102_183">
<rect width="35" height="20" fill="white"/>
</clipPath>
</defs>
</svg>
