<svg width="35" height="20" viewBox="0 0 35 20" fill="none" xmlns="http://www.w3.org/2000/svg">
<g clip-path="url(#clip0_102_181)">
<path d="M3.86816 19.8477C3.58691 19.8477 3.34668 19.748 3.14746 19.5488C2.9541 19.3555 2.85742 19.1211 2.85742 18.8457C2.85742 18.5645 2.9541 18.3242 3.14746 18.125C3.34668 17.9316 3.58691 17.835 3.86816 17.835C4.14355 17.835 4.37793 17.9316 4.57129 18.125C4.77051 18.3242 4.87012 18.5645 4.87012 18.8457C4.87012 19.1211 4.77051 19.3555 4.57129 19.5488C4.37793 19.748 4.14355 19.8477 3.86816 19.8477ZM8.41211 19.8477C8.13672 19.8477 7.89941 19.748 7.7002 19.5488C7.50684 19.3555 7.41016 19.1211 7.41016 18.8457C7.41016 18.5645 7.50684 18.3242 7.7002 18.125C7.89941 17.9316 8.13672 17.835 8.41211 17.835C8.6875 17.835 8.9248 17.9316 9.12402 18.125C9.32324 18.3242 9.42285 18.5645 9.42285 18.8457C9.42285 19.1211 9.32324 19.3555 9.12402 19.5488C8.9248 19.748 8.6875 19.8477 8.41211 19.8477ZM12.9648 19.8477C12.6836 19.8477 12.4434 19.748 12.2441 19.5488C12.0508 19.3555 11.9541 19.1211 11.9541 18.8457C11.9541 18.5645 12.0508 18.3242 12.2441 18.125C12.4434 17.9316 12.6836 17.835 12.9648 17.835C13.2402 17.835 13.4746 17.9316 13.668 18.125C13.8672 18.3242 13.9668 18.5645 13.9668 18.8457C13.9668 19.1211 13.8672 19.3555 13.668 19.5488C13.4746 19.748 13.2402 19.8477 12.9648 19.8477ZM17.5 19.8477C17.2246 19.8477 16.9873 19.748 16.7881 19.5488C16.5947 19.3555 16.498 19.1211 16.498 18.8457C16.498 18.5645 16.5947 18.3242 16.7881 18.125C16.9873 17.9316 17.2246 17.835 17.5 17.835C17.7812 17.835 18.0186 17.9316 18.2119 18.125C18.4111 18.3242 18.5107 18.5645 18.5107 18.8457C18.5107 19.1211 18.4111 19.3555 18.2119 19.5488C18.0186 19.748 17.7812 19.8477 17.5 19.8477ZM22.0527 19.8477C21.7715 19.8477 21.5312 19.748 21.332 19.5488C21.1387 19.3555 21.042 19.1211 21.042 18.8457C21.042 18.5645 21.1387 18.3242 21.332 18.125C21.5312 17.9316 21.7715 17.835 22.0527 17.835C22.3281 17.835 22.5625 17.9316 22.7559 18.125C22.9551 18.3242 23.0547 18.5645 23.0547 18.8457C23.0547 19.1211 22.9551 19.3555 22.7559 19.5488C22.5625 19.748 22.3281 19.8477 22.0527 19.8477ZM26.5967 19.8477C26.3213 19.8477 26.084 19.748 25.8848 19.5488C25.6914 19.3555 25.5947 19.1211 25.5947 18.8457C25.5947 18.5645 25.6914 18.3242 25.8848 18.125C26.084 17.9316 26.3213 17.835 26.5967 17.835C26.8779 17.835 27.1152 17.9316 27.3086 18.125C27.5078 18.3242 27.6074 18.5645 27.6074 18.8457C27.6074 19.1211 27.5078 19.3555 27.3086 19.5488C27.1152 19.748 26.8779 19.8477 26.5967 19.8477ZM31.1318 19.8477C30.8564 19.8477 30.6191 19.748 30.4199 19.5488C30.2207 19.3555 30.1211 19.1211 30.1211 18.8457C30.1211 18.5645 30.2207 18.3242 30.4199 18.125C30.6191 17.9316 30.8564 17.835 31.1318 17.835C31.4072 17.835 31.6416 17.9316 31.835 18.125C32.0342 18.3242 32.1338 18.5645 32.1338 18.8457C32.1338 19.1211 32.0342 19.3555 31.835 19.5488C31.6416 19.748 31.4072 19.8477 31.1318 19.8477ZM3.53418 14.4688C3.36426 14.4688 3.21484 14.416 3.08594 14.3105C2.95703 14.1992 2.89258 14.0469 2.89258 13.8535C2.89258 13.7363 2.91895 13.5957 2.97168 13.4316L7.2168 2.23438C7.29883 2 7.41602 1.82715 7.56836 1.71582C7.72656 1.60449 7.92578 1.54883 8.16602 1.54883C8.41211 1.54883 8.61133 1.60742 8.76367 1.72461C8.92188 1.83594 9.04199 2.00879 9.12402 2.24316L13.3604 13.4316C13.3896 13.5137 13.4102 13.5869 13.4219 13.6514C13.4395 13.71 13.4482 13.7744 13.4482 13.8447C13.4482 14.0322 13.3809 14.1846 13.2461 14.3018C13.1113 14.4131 12.959 14.4688 12.7891 14.4688C12.6367 14.4688 12.4961 14.4248 12.3672 14.3369C12.2441 14.249 12.1445 14.0996 12.0684 13.8887L10.8467 10.5576H5.48535L4.25488 13.8887C4.18457 14.0938 4.08203 14.2432 3.94727 14.3369C3.81836 14.4248 3.68066 14.4688 3.53418 14.4688ZM5.8457 9.43262H10.4688L8.20996 3.25391H8.11328L5.8457 9.43262ZM15.3818 14.4688C15.1943 14.4688 15.0391 14.4102 14.916 14.293C14.7988 14.1758 14.7402 14.0117 14.7402 13.8008V2.41016C14.7402 2.1875 14.8018 2.01465 14.9248 1.8916C15.0479 1.76855 15.209 1.70703 15.4082 1.70703C15.6016 1.70703 15.7568 1.76855 15.874 1.8916C15.9971 2.01465 16.0586 2.1875 16.0586 2.41016V7.08594H16.085C16.3311 6.43555 16.7354 5.91992 17.2979 5.53906C17.8604 5.15234 18.5049 4.95898 19.2314 4.95898C20.0049 4.95898 20.6816 5.1582 21.2617 5.55664C21.8477 5.94922 22.3047 6.50293 22.6328 7.21777C22.9609 7.92676 23.125 8.76172 23.125 9.72266C23.125 10.6777 22.9609 11.5127 22.6328 12.2275C22.3047 12.9424 21.8477 13.499 21.2617 13.8975C20.6816 14.29 19.999 14.4863 19.2139 14.4863C18.4756 14.4863 17.8252 14.293 17.2627 13.9062C16.7002 13.5195 16.2988 13.001 16.0586 12.3506H16.0322V13.8008C16.0322 14.0059 15.9678 14.1699 15.8389 14.293C15.7158 14.4102 15.5635 14.4688 15.3818 14.4688ZM18.9502 13.3262C19.5186 13.3262 20.0137 13.1797 20.4355 12.8867C20.8574 12.5938 21.1826 12.1777 21.4111 11.6387C21.6396 11.0996 21.7539 10.4609 21.7539 9.72266C21.7539 8.98438 21.6396 8.34863 21.4111 7.81543C21.1826 7.27637 20.8574 6.86035 20.4355 6.56738C20.0137 6.26855 19.5186 6.11914 18.9502 6.11914C18.3877 6.11914 17.8896 6.27148 17.4561 6.57617C17.0225 6.875 16.6826 7.29395 16.4365 7.83301C16.1963 8.37207 16.0762 9.00195 16.0762 9.72266C16.0762 10.4492 16.1963 11.082 16.4365 11.6211C16.6826 12.1602 17.0225 12.5791 17.4561 12.8779C17.8896 13.1768 18.3877 13.3262 18.9502 13.3262ZM28.4072 14.4863C27.5518 14.4863 26.8047 14.293 26.166 13.9062C25.5332 13.5137 25.041 12.9629 24.6895 12.2539C24.3379 11.5391 24.1621 10.6982 24.1621 9.73145C24.1621 8.77051 24.335 7.93262 24.6807 7.21777C25.0322 6.50293 25.5215 5.94922 26.1484 5.55664C26.7812 5.1582 27.5254 4.95898 28.3809 4.95898C28.9609 4.95898 29.5 5.06152 29.998 5.2666C30.4961 5.46582 30.9209 5.74414 31.2725 6.10156C31.6299 6.45312 31.8818 6.85742 32.0283 7.31445C32.0459 7.36719 32.0576 7.42578 32.0635 7.49023C32.0752 7.54883 32.0811 7.60449 32.0811 7.65723C32.0811 7.82715 32.0283 7.96191 31.9229 8.06152C31.8174 8.16113 31.6797 8.21094 31.5098 8.21094C31.3633 8.21094 31.2432 8.17871 31.1494 8.11426C31.0615 8.0498 30.9766 7.93848 30.8945 7.78027C30.6719 7.22949 30.3467 6.81641 29.9189 6.54102C29.4912 6.25977 28.9873 6.11914 28.4072 6.11914C27.5342 6.11914 26.834 6.44141 26.3066 7.08594C25.7852 7.73047 25.5244 8.60938 25.5244 9.72266C25.5244 10.8418 25.7852 11.7236 26.3066 12.3682C26.8281 13.0068 27.5312 13.3262 28.416 13.3262C29.0195 13.3262 29.5293 13.1855 29.9453 12.9043C30.3672 12.623 30.6895 12.2158 30.9121 11.6826C31 11.5127 31.0879 11.3926 31.1758 11.3223C31.2695 11.252 31.3896 11.2168 31.5361 11.2168C31.7002 11.2168 31.8379 11.2725 31.9492 11.3838C32.0605 11.4893 32.1162 11.624 32.1162 11.7881C32.1162 11.8525 32.1074 11.9199 32.0898 11.9902C32.0781 12.0547 32.0605 12.1221 32.0371 12.1924C31.873 12.6377 31.6123 13.0332 31.2549 13.3789C30.8975 13.7246 30.4727 13.9971 29.9805 14.1963C29.4941 14.3896 28.9697 14.4863 28.4072 14.4863Z" fill="black"/>
</g>
<defs>
<clipPath id="clip0_102_181">
<rect width="35" height="20" fill="white"/>
</clipPath>
</defs>
</svg>
