<svg width="100" height="100" viewBox="0 0 100 100" fill="none" xmlns="http://www.w3.org/2000/svg">
<path opacity="0.06" d="M52.6563 41.666C52.6563 39.0098 53.2813 36.6172 54.5313 34.4883C55.7617 32.3789 57.4512 30.6992 59.5996 29.4492C61.7285 28.1992 64.1309 27.5742 66.8066 27.5742C69.541 27.5742 72.0606 28.2578 74.3652 29.625C76.6504 30.9922 78.4863 32.9648 79.873 35.543C81.2598 38.1406 81.9531 41.2656 81.9531 44.918C81.9531 48.1602 81.3867 51.1387 80.2539 53.8535C79.1016 56.5684 77.5391 58.9512 75.5664 61.002C74.1602 62.4863 72.5684 63.7852 70.791 64.8984C69.0137 66.0312 67.1094 66.9297 65.0781 67.5937C64.4531 67.7891 63.9355 67.9355 63.5254 68.0332C63.0957 68.1309 62.6562 68.1797 62.207 68.1797C61.5234 68.1797 60.9668 67.9844 60.5371 67.5937C60.1074 67.2031 59.8926 66.7051 59.8926 66.0996C59.8926 65.7676 59.9609 65.4746 60.0977 65.2207C60.2148 64.9668 60.3906 64.752 60.625 64.5762C60.8203 64.4004 61.084 64.2441 61.416 64.1074C61.748 63.9707 62.1484 63.8242 62.6172 63.668C64.2188 63.1992 65.7324 62.5645 67.1582 61.7637C68.584 60.9629 69.873 60.0352 71.0254 58.9805C72.1777 57.9453 73.1738 56.8027 74.0137 55.5527C74.834 54.3027 75.459 52.9844 75.8887 51.5977L75.0977 51.5977C73.8672 52.9453 72.4609 53.9609 70.8789 54.6445C69.2773 55.3281 67.6074 55.6699 65.8691 55.6699C63.3887 55.6699 61.1523 55.0449 59.1602 53.7949C57.168 52.5449 55.5859 50.8555 54.4141 48.7266C53.2422 46.6172 52.6563 44.2637 52.6563 41.666ZM17.4707 41.666C17.4707 39.0098 18.0957 36.6172 19.3457 34.4883C20.5762 32.3789 22.2559 30.6992 24.3848 29.4492C26.5137 28.1992 28.9258 27.5742 31.6211 27.5742C34.3555 27.5742 36.875 28.2578 39.1797 29.625C41.4648 30.9922 43.3008 32.9648 44.6875 35.543C46.0742 38.1406 46.7676 41.2656 46.7676 44.918C46.7676 48.1602 46.2012 51.1387 45.0684 53.8535C43.916 56.5684 42.3633 58.9512 40.4102 61.0019C39.0039 62.4863 37.4121 63.7852 35.6348 64.8984C33.8379 66.0312 31.9336 66.9297 29.9219 67.5937C29.2773 67.7891 28.75 67.9355 28.3398 68.0332C27.9297 68.1309 27.4902 68.1797 27.0215 68.1797C26.3184 68.1797 25.7617 67.9844 25.3516 67.5937C24.9414 67.2031 24.7363 66.7051 24.7363 66.0996C24.7363 65.7676 24.7949 65.4746 24.9121 65.2207C25.0293 64.9668 25.2051 64.7519 25.4395 64.5762C25.6348 64.4004 25.9082 64.2441 26.2598 64.1074C26.5918 63.9707 26.9922 63.8242 27.4609 63.668C29.0625 63.1992 30.5762 62.5644 32.002 61.7637C33.4082 60.9629 34.6973 60.0352 35.8691 58.9805C37.0215 57.9453 38.0176 56.8027 38.8574 55.5527C39.6777 54.3027 40.293 52.9844 40.7031 51.5977L39.9121 51.5977C38.7012 52.9453 37.2949 53.9609 35.6934 54.6445C34.0918 55.3281 32.4219 55.6699 30.6836 55.6699C28.2031 55.6699 25.9668 55.0449 23.9746 53.7949C21.9824 52.5449 20.4004 50.8555 19.2285 48.7266C18.0566 46.6172 17.4707 44.2637 17.4707 41.666Z" fill="black"/>
</svg>
