<svg width="100" height="100" viewBox="0 0 100 100" fill="none" xmlns="http://www.w3.org/2000/svg">
<path opacity="0.06" d="M46.7676 58.0879C46.7676 60.7441 46.1426 63.1367 44.8926 65.2656C43.6621 67.375 41.9727 69.0547 39.8242 70.3047C37.6953 71.5547 35.293 72.1797 32.6172 72.1797C29.8828 72.1797 27.3633 71.4961 25.0586 70.1289C22.7734 68.7617 20.9375 66.7891 19.5508 64.2109C18.1641 61.6133 17.4707 58.4883 17.4707 54.8359C17.4707 51.5938 18.0371 48.6152 19.1699 45.9004C20.3223 43.1855 21.8848 40.8027 23.8574 38.752C25.2637 37.2676 26.8555 35.9688 28.6328 34.8555C30.4102 33.7227 32.3145 32.8242 34.3457 32.1602C34.9707 31.9648 35.4883 31.8184 35.8984 31.7207C36.3281 31.623 36.7676 31.5742 37.2168 31.5742C37.9004 31.5742 38.457 31.7695 38.8867 32.1602C39.3164 32.5508 39.5312 33.0488 39.5312 33.6543C39.5312 33.9863 39.4629 34.2793 39.3262 34.5332C39.209 34.7871 39.0332 35.002 38.7988 35.1777C38.6035 35.3535 38.3398 35.5098 38.0078 35.6465C37.6758 35.7832 37.2754 35.9297 36.8066 36.0859C35.2051 36.5547 33.6914 37.1895 32.2656 37.9902C30.8398 38.791 29.5508 39.7188 28.3984 40.7734C27.2461 41.8086 26.25 42.9512 25.4102 44.2012C24.5898 45.4512 23.9648 46.7695 23.5352 48.1562H24.3262C25.5566 46.8086 26.9629 45.793 28.5449 45.1094C30.1465 44.4258 31.8164 44.084 33.5547 44.084C36.0352 44.084 38.2715 44.709 40.2637 45.959C42.2559 47.209 43.8379 48.8984 45.0098 51.0273C46.1816 53.1367 46.7676 55.4902 46.7676 58.0879ZM81.9531 58.0879C81.9531 60.7441 81.3281 63.1367 80.0781 65.2656C78.8477 67.375 77.168 69.0547 75.0391 70.3047C72.9102 71.5547 70.498 72.1797 67.8027 72.1797C65.0684 72.1797 62.5488 71.4961 60.2441 70.1289C57.959 68.7617 56.123 66.7891 54.7363 64.2109C53.3496 61.6133 52.6562 58.4883 52.6562 54.8359C52.6562 51.5938 53.2227 48.6152 54.3555 45.9004C55.5078 43.1855 57.0605 40.8027 59.0137 38.752C60.4199 37.2676 62.0117 35.9688 63.7891 34.8555C65.5859 33.7227 67.4902 32.8242 69.502 32.1602C70.1465 31.9648 70.6738 31.8184 71.084 31.7207C71.4941 31.623 71.9336 31.5742 72.4023 31.5742C73.1055 31.5742 73.6621 31.7695 74.0723 32.1602C74.4824 32.5508 74.6875 33.0488 74.6875 33.6543C74.6875 33.9863 74.6289 34.2793 74.5117 34.5332C74.3945 34.7871 74.2188 35.002 73.9844 35.1777C73.7891 35.3535 73.5156 35.5098 73.1641 35.6465C72.832 35.7832 72.4316 35.9297 71.9629 36.0859C70.3613 36.5547 68.8477 37.1895 67.4219 37.9902C66.0156 38.791 64.7266 39.7188 63.5547 40.7734C62.4023 41.8086 61.4062 42.9512 60.5664 44.2012C59.7461 45.4512 59.1309 46.7695 58.7207 48.1562H59.5117C60.7227 46.8086 62.1289 45.793 63.7305 45.1094C65.332 44.4258 67.002 44.084 68.7402 44.084C71.2207 44.084 73.457 44.709 75.4492 45.959C77.4414 47.209 79.0234 48.8984 80.1953 51.0273C81.3672 53.1367 81.9531 55.4902 81.9531 58.0879Z" fill="black"/>
</svg>
