<svg width="40" height="33" viewBox="0 0 40 33" fill="none" xmlns="http://www.w3.org/2000/svg">
<path opacity="0.4" d="M20.0055 27C18.5448 27 17.1616 26.8306 15.8558 26.4918C14.55 26.1529 13.3401 25.7047 12.2261 25.1471C11.1121 24.5894 10.1088 23.9753 9.21616 23.3047C8.33087 22.6341 7.57101 21.96 6.93655 21.2824C6.30948 20.6047 5.82995 19.98 5.49797 19.4082C5.16599 18.8294 5 18.36 5 18C5 17.64 5.16599 17.1741 5.49797 16.6024C5.82995 16.0235 6.30948 15.3953 6.93655 14.7176C7.57101 14.04 8.33087 13.3659 9.21616 12.6953C10.1088 12.0247 11.1121 11.4106 12.2261 10.8529C13.3401 10.2953 14.55 9.84706 15.8558 9.50824C17.1616 9.16941 18.5448 9 20.0055 9C21.481 9 22.8716 9.16941 24.1774 9.50824C25.4906 9.84706 26.7042 10.2953 27.8181 10.8529C28.9321 11.4106 29.9318 12.0247 30.817 12.6953C31.7023 13.3659 32.4548 14.04 33.0745 14.7176C33.7016 15.3953 34.1774 16.0235 34.502 16.6024C34.834 17.1741 35 17.64 35 18C35 18.36 34.834 18.8294 34.502 19.4082C34.1774 19.98 33.7016 20.6047 33.0745 21.2824C32.4548 21.96 31.7023 22.6341 30.817 23.3047C29.9391 23.9753 28.9432 24.5894 27.8292 25.1471C26.7152 25.7047 25.5017 26.1529 24.1885 26.4918C22.8753 26.8306 21.481 27 20.0055 27ZM20.0055 23.8976C20.8613 23.8976 21.6617 23.7459 22.4069 23.4424C23.1594 23.1318 23.8159 22.7047 24.3766 22.1612C24.9447 21.6106 25.3873 20.9824 25.7045 20.2765C26.0291 19.5635 26.1914 18.8047 26.1914 18C26.1914 17.1741 26.0291 16.4047 25.7045 15.6918C25.3873 14.9788 24.9447 14.3541 24.3766 13.8176C23.8159 13.2741 23.1594 12.8541 22.4069 12.5576C21.6617 12.2541 20.8613 12.1024 20.0055 12.1024C19.1424 12.1024 18.3346 12.2541 17.5821 12.5576C16.837 12.8541 16.1804 13.2741 15.6123 13.8176C15.0443 14.3541 14.6016 14.9788 14.2844 15.6918C13.9672 16.4047 13.8086 17.1741 13.8086 18C13.8086 18.8047 13.9672 19.5635 14.2844 20.2765C14.609 20.9824 15.0516 21.6106 15.6123 22.1612C16.1804 22.7047 16.837 23.1318 17.5821 23.4424C18.3346 23.7459 19.1424 23.8976 20.0055 23.8976ZM20.0055 20.1282C19.3858 20.1282 18.8547 19.92 18.412 19.5035C17.9694 19.08 17.7481 18.5788 17.7481 18C17.7481 17.4141 17.9694 16.9129 18.412 16.4965C18.8547 16.0729 19.3858 15.8612 20.0055 15.8612C20.6179 15.8612 21.1453 16.0729 21.588 16.4965C22.0306 16.9129 22.2519 17.4141 22.2519 18C22.2519 18.5788 22.0306 19.08 21.588 19.5035C21.1453 19.92 20.6179 20.1282 20.0055 20.1282Z" fill="black"/>
</svg>
