<svg width="1800" height="850" viewBox="0 0 1800 850" fill="none" xmlns="http://www.w3.org/2000/svg">
<path d="M1244.56 773.818L1245.55 773.927L1245.66 772.933L1264.32 602.593L1264.43 601.599L1263.44 601.49L1240.77 599.006L1239.78 598.897L1239.67 599.891L1221.01 770.232L1220.9 771.226L1221.89 771.335L1244.56 773.818Z" fill="black" stroke="black" stroke-width="2"/>
<path d="M1502.4 490.137L1502.82 489.229L1501.91 488.81L1481.2 479.257L1480.3 478.838L1479.88 479.746L1434.03 579.117C1427.66 592.921 1419.43 601.674 1409.43 605.595L1409.43 605.595C1399.65 609.433 1388.27 608.446 1375.21 602.42C1361.42 596.054 1352.62 587.728 1348.62 577.509C1344.69 567.155 1345.8 555.131 1352.16 541.343L1398.01 441.972L1398.43 441.064L1397.52 440.645L1376.82 431.092L1375.91 430.673L1375.49 431.581L1329.64 530.952C1319.99 551.88 1318.48 569.965 1325.41 585.076L1325.41 585.089C1332.52 600.037 1346.25 612.138 1366.43 621.452C1386.19 630.569 1403.85 632.679 1419.33 627.59L1419.33 627.588C1434.91 622.341 1447.29 609.567 1456.54 589.508L1502.4 490.137Z" fill="black" stroke="black" stroke-width="2"/>
<path d="M1180.06 346.003L1179.07 345.922L1178.98 346.918L1165 517.707L1164.92 518.704L1165.92 518.785L1284.56 528.498L1285.56 528.579L1285.64 527.582L1287.21 508.446L1287.29 507.45L1286.29 507.368L1191.37 499.598L1196.04 442.509L1283.79 449.692L1284.78 449.773L1284.87 448.777L1286.43 429.641L1286.51 428.644L1285.52 428.562L1197.77 421.379L1202.05 369.074L1296.26 376.786L1297.25 376.868L1297.34 375.871L1298.9 356.735L1298.98 355.738L1297.99 355.657L1180.06 346.003Z" fill="black" stroke="black" stroke-width="2"/>
<path d="M1019.82 440.427L1018.83 440.612L1019.02 441.595L1050.68 610.004L1050.87 610.987L1051.85 610.802L1163.41 589.827L1164.4 589.642L1164.21 588.659L1160.66 569.79L1160.48 568.807L1159.5 568.992L1071.32 585.57L1043.39 437.012L1043.21 436.03L1042.22 436.214L1019.82 440.427Z" fill="black" stroke="black" stroke-width="2"/>
<path d="M1563.2 366.516L1528.49 338.507L1561.45 297.666L1596.16 325.675C1599.98 328.763 1603.36 331.893 1606.28 335.063L1606.29 335.078L1606.31 335.092C1609.41 338.197 1611.62 341.48 1612.98 344.936C1614.31 348.361 1614.65 351.948 1613.96 355.717C1613.29 359.434 1611.13 363.62 1607.37 368.283C1601.78 375.205 1595.48 378.553 1588.46 378.548C1581.64 378.518 1573.24 374.613 1563.2 366.516ZM1556.24 266.222L1555.46 265.594L1554.84 266.372L1447.22 399.728L1446.59 400.506L1447.37 401.134L1511.81 453.132C1518.49 458.523 1525.25 462.211 1532.1 464.157L1532.11 464.16C1539.13 466.068 1545.8 466.637 1552.13 465.845C1558.66 465.031 1564.72 462.989 1570.3 459.718C1575.86 456.458 1580.65 452.35 1584.64 447.399C1591.39 439.036 1594.94 430.099 1595.21 420.606C1595.46 411.771 1592.57 403.353 1586.61 395.373C1594.33 397.421 1601.72 397.338 1608.75 395.091C1616.67 392.608 1623.54 387.725 1629.38 380.495C1634.9 373.652 1638.02 366.55 1638.64 359.197C1639.38 352.046 1638.61 345.323 1636.31 339.042C1635.28 336.061 1633.54 333.073 1631.13 330.075C1628.86 327.204 1626.19 324.326 1623.14 321.442C1620.18 318.437 1617.01 315.57 1613.63 312.842C1610.49 310.102 1607.49 307.574 1604.62 305.258L1556.24 266.222ZM1522.88 434.825L1479.21 399.582L1515.18 355.005L1554.93 387.083C1558.61 390.056 1561.87 393.294 1564.71 396.797L1564.72 396.81L1564.73 396.823C1567.64 400.168 1569.66 403.694 1570.82 407.4L1570.83 407.426L1570.84 407.452C1572.21 411.111 1572.56 414.933 1571.9 418.936C1571.24 422.89 1569.24 426.998 1565.79 431.264C1559.9 438.57 1553.17 442.436 1545.6 443.026L1545.59 443.027C1538.14 443.714 1530.58 441.041 1522.88 434.825Z" fill="black" stroke="black" stroke-width="2"/>
<path d="M1300.39 123.466L1299.42 123.214L1299.17 124.182L1256.03 290.023L1255.78 290.991L1256.75 291.243L1277.65 296.68L1278.62 296.932L1278.87 295.964L1313.69 162.089L1329.17 309.411L1329.24 310.1L1329.91 310.274L1348.73 315.168L1349.4 315.342L1349.8 314.776L1435.09 193.667L1400.27 327.542L1400.02 328.51L1400.99 328.762L1421.89 334.199L1422.86 334.451L1423.11 333.483L1466.25 167.642L1466.5 166.674L1465.53 166.422L1435.34 158.568L1434.67 158.394L1434.27 158.959L1347.06 282.494L1331.33 132.184L1331.25 131.494L1330.58 131.32L1300.39 123.466Z" fill="black" stroke="black" stroke-width="2"/>
<path d="M1137.21 113.617L1136.83 112.693L1135.91 113.075L1114.84 121.794L1113.92 122.176L1114.3 123.1L1156.15 224.222C1161.96 238.269 1162.81 250.249 1158.9 260.258L1158.9 260.258C1155.08 270.047 1146.63 277.729 1133.34 283.229C1119.3 289.04 1107.22 289.847 1097 285.849C1086.73 281.708 1078.65 272.731 1072.84 258.7L1030.99 157.578L1030.61 156.654L1029.68 157.037L1008.62 165.756L1007.69 166.138L1008.08 167.062L1049.93 268.184C1058.74 289.48 1071 302.863 1086.8 308.033L1086.81 308.037C1102.61 312.965 1120.82 311.097 1141.36 302.596C1161.46 294.274 1175 282.739 1181.77 267.918L1181.77 267.912C1188.49 252.912 1187.51 235.151 1179.06 214.738L1137.21 113.617Z" fill="black" stroke="black" stroke-width="2"/>
<path d="M834.204 375.591L833.599 376.387L834.395 376.992L970.881 480.606L971.677 481.211L972.282 480.415L986.068 462.255L986.673 461.458L985.876 460.854L924.165 414.004L977.52 343.723L1039.23 390.572L1040.03 391.176L1040.63 390.38L1054.42 372.22L1055.02 371.424L1054.23 370.819L917.742 267.204L916.945 266.6L916.341 267.396L902.554 285.556L901.95 286.353L902.746 286.957L960.635 330.904L907.279 401.186L849.391 357.239L848.594 356.634L847.99 357.431L834.204 375.591Z" fill="black" stroke="black" stroke-width="2"/>
<ellipse cx="416.314" cy="248.942" rx="148.913" ry="91.7366" transform="rotate(-68.9199 416.314 248.942)" fill="url(#paint0_linear_625_26)"/>
<ellipse cx="317.218" cy="278.071" rx="156.542" ry="94.0828" transform="rotate(-135 317.218 278.071)" fill="url(#paint1_linear_625_26)"/>
<path d="M277.15 482.498L251.806 519.442L256.279 530.204L303.984 539.148L277.15 482.498Z" fill="#020007" stroke="black"/>
<path d="M498.647 543.587C546.139 525.577 572.278 474.531 559.132 425.47V425.47C545.986 376.409 497.826 345.272 447.692 353.42L360.863 367.533C297.856 377.775 257.491 440.209 274.012 501.868V501.868C290.534 563.527 356.708 597.413 416.395 574.779L498.647 543.587Z" fill="url(#paint2_linear_625_26)"/>
<mask id="mask0_625_26" style="mask-type:alpha" maskUnits="userSpaceOnUse" x="270" y="352" width="293" height="230">
<path d="M498.647 543.587C546.139 525.577 572.278 474.531 559.132 425.47V425.47C545.986 376.409 497.826 345.272 447.692 353.42L360.863 367.533C297.856 377.775 257.491 440.209 274.012 501.868V501.868C290.534 563.527 356.708 597.413 416.395 574.779L498.647 543.587Z" fill="#FFDB2B"/>
</mask>
<g mask="url(#mask0_625_26)">
<path d="M557.413 622.635C412.811 489.959 374.043 333.417 326.337 124.706C312.92 309.565 363.607 500.387 460.51 691.212C347.208 573.436 295.662 499.44 272.669 354.288" stroke="black" stroke-width="30"/>
</g>
<path d="M467.977 410.939C500.62 454.837 516.79 468.352 526.118 413.921" stroke="black" stroke-width="9"/>
<defs>
<linearGradient id="paint0_linear_625_26" x1="564.765" y1="246.78" x2="278.906" y2="251.961" gradientUnits="userSpaceOnUse">
<stop stop-color="#00D1FF" stop-opacity="0.4"/>
<stop offset="1" stop-color="#00D1FF" stop-opacity="0"/>
</linearGradient>
<linearGradient id="paint1_linear_625_26" x1="473.274" y1="275.853" x2="172.776" y2="281.436" gradientUnits="userSpaceOnUse">
<stop stop-color="#00D1FF" stop-opacity="0.4"/>
<stop offset="1" stop-color="#00D1FF" stop-opacity="0"/>
</linearGradient>
<linearGradient id="paint2_linear_625_26" x1="429.215" y1="442.248" x2="454.559" y2="557.04" gradientUnits="userSpaceOnUse">
<stop stop-color="#FFDB2B"/>
<stop offset="1" stop-color="#C9A900"/>
</linearGradient>
</defs>
</svg>
