<svg width="400" height="300" viewBox="0 0 400 300" fill="none" xmlns="http://www.w3.org/2000/svg">
<rect width="400" height="300" fill="#112233"/>
<path fill-rule="evenodd" clip-rule="evenodd" d="M230.791 69.5955L307.17 49.7756L305.412 43L227.049 63.3347L189.703 58.9121L188.879 65.8635L223.791 69.9978V152.888H230.791V69.5955ZM111.316 145.807L99.3161 46.3069L106.266 45.4687L117.871 141.694L213.078 135.894L213.504 142.881L115.004 148.881C113.155 148.994 111.538 147.646 111.316 145.807ZM169.465 69.6352L126.184 55.2082L128.398 48.5674L173.398 63.5674C174.476 63.9268 175.312 64.7872 175.641 65.8749L182.141 87.3749C182.161 87.4418 182.18 87.5092 182.196 87.5771L188.714 114.955L210.352 105.197L213.23 111.578L187.73 123.078C187.319 123.264 186.876 123.368 186.425 123.385L147.425 124.885C146.021 124.939 144.72 124.148 144.123 122.875L132.623 98.375C132.165 97.4 132.182 96.2687 132.668 95.3077C133.154 94.3467 134.056 93.6631 135.112 93.4542L174.323 85.7033L169.465 69.6352ZM176.166 92.4744L140.861 99.4532L149.474 117.801L181.899 116.554L176.166 92.4744ZM309.023 77.7007C309.841 78.722 310.021 80.1139 309.489 81.3093L293.489 117.309C292.999 118.412 291.975 119.185 290.78 119.354L254.728 124.438L254.378 141.26L305.731 132.933L306.851 139.843L251.351 148.843C250.326 149.009 249.279 148.711 248.495 148.03C247.711 147.348 247.27 146.354 247.292 145.315L247.791 121.352V90.8878C247.791 89.2194 248.969 87.783 250.605 87.4558L305.605 76.4558C306.887 76.1992 308.206 76.6794 309.023 77.7007ZM254.791 117.36L287.881 112.693L300.346 84.6461L254.791 93.7571V117.36ZM242.791 171.285L319.038 165.879L318.543 158.897L239.326 164.513L177.608 158.902L176.974 165.873L235.791 171.22V223.524H242.791V171.285ZM157.243 162.917C158.898 163.133 160.17 164.486 160.283 166.151L165.783 247.151L158.799 247.625L154.485 184.088L130.606 254.512C130.086 256.045 128.581 257.022 126.969 256.873C125.357 256.724 124.057 255.488 123.827 253.886L113.317 180.739L86.5819 254.579L80 252.196L111.5 165.196C112.047 163.686 113.551 162.742 115.149 162.906C116.746 163.07 118.027 164.3 118.255 165.89L128.675 238.408L153.476 165.264C154.012 163.684 155.589 162.702 157.243 162.917ZM300.448 181.905C302.302 181.722 303.974 183.024 304.252 184.866L309.752 221.366C309.917 222.463 309.553 223.574 308.769 224.359C307.986 225.145 306.877 225.512 305.779 225.35L265.394 219.384L263.609 236.518L304.91 243.943L303.672 250.833L259.172 242.833C257.368 242.508 256.12 240.848 256.31 239.025L258.81 215.025L258.813 214.994L261.813 188.494C261.999 186.854 263.305 185.567 264.948 185.405L300.448 181.905ZM268.45 192.093L266.149 212.42L302.126 217.734L297.825 189.197L268.45 192.093ZM210.791 194.516L173.9 190.366L174.682 183.41L214.682 187.91C216.453 188.109 217.791 189.606 217.791 191.388V213.19L220.016 232.774L240.398 239.567L238.184 246.208L217.197 239.212L188.07 256.402C187.081 256.985 185.87 257.047 184.827 256.567C183.785 256.087 183.044 255.126 182.844 253.996L176.844 219.996C176.508 218.092 177.779 216.277 179.683 215.941L210.791 210.451V194.516ZM211.234 217.481L184.346 222.226L188.86 247.807L213.057 233.527L211.234 217.481Z" fill="white"/>
</svg>
