<svg width="420" height="140" viewBox="0 0 420 140" fill="none" xmlns="http://www.w3.org/2000/svg">
<rect width="420" height="140" fill="white"/>
<path d="M397.823 104.344C388.783 104.344 381.743 102.184 376.703 97.8643C371.663 93.4643 369.143 86.7443 369.143 77.7043V60.6243H360V41.1243H362.643C368 41.1243 370.143 39.1243 370.143 33.6243V23.7443L396.263 21.7443V41.1243H409.5V60.6243H396.263V77.4643C396.263 79.4643 396.783 81.0243 397.823 82.1443C398.943 83.2643 400.303 83.8243 401.903 83.8243C404.223 83.8243 406.263 83.2243 408.023 82.0243L414.503 100.864C412.423 102.064 409.903 102.944 406.943 103.504C404.063 104.064 401.023 104.344 397.823 104.344Z" fill="#EA701D"/>
<circle cx="111" cy="70.6243" r="10" fill="black"/>
<circle cx="198" cy="70.6243" r="10" fill="black"/>
<path d="M327.485 36.3043C332.525 36.3043 337.085 37.3443 341.165 39.4243C345.245 41.4243 348.445 44.5843 350.765 48.9043C353.165 53.2243 354.365 58.8243 354.365 65.7043V103.144H327.245V70.3843C327.245 66.3043 326.525 63.4243 325.085 61.7443C323.645 59.9843 321.685 59.1043 319.205 59.1043C317.365 59.1043 315.645 59.5443 314.045 60.4243C312.525 61.2243 311.285 62.5843 310.325 64.5043C309.445 66.4243 309.005 69.0243 309.005 72.3043V103.144H281.885V37.5043H307.685V56.7043L302.525 51.1843C305.085 46.2243 308.525 42.5043 312.845 40.0243C317.245 37.5443 322.125 36.3043 327.485 36.3043Z" fill="#EA701D"/>
<path d="M244.744 103.144V37.5043H271.864V103.144H244.744Z" fill="#EA701D"/>
<path d="M175.155 101.224C179.395 103.304 184.115 104.344 189.315 104.344C194.275 104.344 198.875 103.144 203.115 100.744C204.882 99.7297 206.482 98.4941 207.915 97.0377V103.144H233.715V73.6243H161.715C161.715 79.6306 162.481 85.8793 165.315 91.2643C167.715 95.7443 170.995 99.0643 175.155 101.224Z" fill="#EA701D"/>
<path d="M161.715 67.6243V37.5043H233.715V67.6243H161.715Z" fill="#EA701D"/>
<path d="M35.76 104.344C30.16 104.344 24.64 103.744 19.2 102.544C13.76 101.344 9.36 99.7843 6 97.8643L13.44 79.9843C16.56 81.8243 20.16 83.2643 24.24 84.3043C28.4 85.3443 32.44 85.8643 36.36 85.8643C39.64 85.8643 41.84 85.5843 42.96 85.0243C44.16 84.4643 44.76 83.7043 44.76 82.7443C44.76 81.7843 44.08 81.1043 42.72 80.7043C41.36 80.2243 39.56 79.8643 37.32 79.6243C35.08 79.3843 32.6 79.1043 29.88 78.7843C27.24 78.3843 24.56 77.8243 21.84 77.1043C19.12 76.3843 16.64 75.3043 14.4 73.8643C12.16 72.4243 10.36 70.5043 9 68.1043C7.64 65.6243 6.96 62.5043 6.96 58.7443C6.96 54.5843 8.2 50.8243 10.68 47.4643C13.24 44.1043 17 41.4243 21.96 39.4243C27 37.3443 33.2 36.3043 40.56 36.3043C45.36 36.3043 50.16 36.7443 54.96 37.6243C59.76 38.5043 63.88 39.8643 67.32 41.7043L59.88 59.5843C56.52 57.7443 53.2 56.5043 49.92 55.8643C46.72 55.1443 43.72 54.7843 40.92 54.7843C37.48 54.7843 35.12 55.1043 33.84 55.7443C32.64 56.3843 32.04 57.1043 32.04 57.9043C32.04 58.8643 32.72 59.5843 34.08 60.0643C35.44 60.5443 37.24 60.9043 39.48 61.1443C41.72 61.3843 44.16 61.7043 46.8 62.1043C49.52 62.4243 52.2 62.9843 54.84 63.7843C57.56 64.5043 60.04 65.5843 62.28 67.0243C64.52 68.4643 66.32 70.4243 67.68 72.9043C69.04 75.3043 69.72 78.3843 69.72 82.1443C69.72 86.0643 68.48 89.7443 66 93.1843C63.52 96.5443 59.76 99.2643 54.72 101.344C49.68 103.344 43.36 104.344 35.76 104.344Z" fill="#EA701D"/>
<path d="M247.313 31.1777C250.687 33.2636 254.816 33.8759 259.7 33.0146C264.585 32.1533 268.255 30.1657 270.712 27.0518C273.155 23.8591 274.015 20.2144 273.293 16.1176C272.612 12.2572 270.599 9.36278 267.253 7.43445C263.907 5.50613 259.792 4.97261 254.908 5.83391C250.023 6.6952 246.352 8.6828 243.896 11.7967C241.439 14.9106 240.551 18.3977 241.232 22.2582C241.912 26.1186 243.94 29.0918 247.313 31.1777Z" fill="#EA701D"/>
<path d="M91.2915 100.264C96.1715 102.984 101.451 104.344 107.131 104.344C112.891 104.344 117.611 103.144 121.291 100.744C122.189 100.14 123.029 99.4615 123.811 98.7096V127.424L150.931 125.424V73.6243H75.5576C75.9383 79.3069 77.3429 84.3069 79.7715 88.6243C82.6515 93.6643 86.4915 97.5443 91.2915 100.264Z" fill="#EA701D"/>
<path d="M75.5283 67.6243C75.8608 61.753 77.2753 56.633 79.7717 52.2643C82.6517 47.1443 86.4917 43.2243 91.2917 40.5043C96.1717 37.7043 101.452 36.3043 107.132 36.3043C113.212 36.3043 118.052 37.5043 121.652 39.9043C122.939 40.7438 124.099 41.7449 125.132 42.9074V37.5043H150.932V67.6243H75.5283Z" fill="#EA701D"/>
</svg>
