<svg width="900" height="500" viewBox="0 0 900 500" fill="none" xmlns="http://www.w3.org/2000/svg">
<path fill-rule="evenodd" clip-rule="evenodd" d="M450 496C585.862 496 696 385.862 696 250C696 114.138 585.862 4 450 4C314.138 4 204 114.138 204 250C204 385.862 314.138 496 450 496ZM450 402C533.947 402 602 333.947 602 250C602 166.053 533.947 98 450 98C366.053 98 298 166.053 298 250C298 333.947 366.053 402 450 402Z" fill="#59B502"/>
<rect x="140" y="183" width="619" height="129" fill="#2D62D2"/>
<path d="M680.717 264.68C680.717 269.56 679.957 273.72 678.437 277.16C676.917 280.52 674.957 283.28 672.557 285.44C670.237 287.6 667.597 289.16 664.637 290.12C661.757 291.16 658.877 291.68 655.997 291.68C652.397 291.68 649.237 291.12 646.517 290C643.877 288.88 641.597 287.48 639.677 285.8C637.757 284.04 636.157 282.12 634.877 280.04C633.677 277.88 632.717 275.76 631.997 273.68L647.477 266.96C647.557 269.68 648.397 271.8 649.997 273.32C651.597 274.76 653.437 275.48 655.517 275.48C657.837 275.48 659.717 274.72 661.157 273.2C662.677 271.6 663.437 269 663.437 265.4V209.36H680.717V264.68Z" fill="white"/>
<path d="M573.317 290V209.36H590.597V273.92H625.757V290H573.317Z" fill="white"/>
<path d="M558.86 232.88C554.46 230 550.1 227.8 545.78 226.28C541.46 224.68 537.26 223.88 533.18 223.88C529.1 223.88 525.42 224.64 522.14 226.16C518.86 227.6 516.06 229.52 513.74 231.92C511.5 234.32 509.74 237.08 508.46 240.2C507.26 243.32 506.66 246.48 506.66 249.68C506.66 253.6 507.38 257.16 508.82 260.36C510.34 263.48 512.3 266.16 514.7 268.4C517.18 270.64 520.02 272.4 523.22 273.68C526.42 274.88 529.78 275.48 533.3 275.48C537.94 275.48 542.38 274.56 546.62 272.72C550.94 270.8 554.98 268.16 558.74 264.8V284.12C554.82 286.44 550.42 288.28 545.54 289.64C540.66 291 536.14 291.68 531.98 291.68C526.06 291.68 520.42 290.56 515.06 288.32C509.78 286.08 505.14 283.04 501.14 279.2C497.22 275.36 494.1 270.92 491.78 265.88C489.46 260.76 488.3 255.36 488.3 249.68C488.3 243.68 489.46 238.12 491.78 233C494.1 227.88 497.26 223.44 501.26 219.68C505.26 215.92 509.9 213 515.18 210.92C520.54 208.76 526.18 207.68 532.1 207.68C534.34 207.68 536.66 207.84 539.06 208.16C541.54 208.48 543.94 208.92 546.26 209.48C548.58 210.04 550.82 210.72 552.98 211.52C555.14 212.24 557.1 213.04 558.86 213.92V232.88Z" fill="white"/>
<path d="M432.301 290L391.261 236.24V290H373.981V209.36H391.261L431.221 261.68V209.36H448.501V290H432.301Z" fill="white"/>
<path d="M340.119 249.68C340.119 246.48 339.599 243.44 338.559 240.56C337.519 237.6 335.959 235 333.879 232.76C331.879 230.52 329.319 228.76 326.199 227.48C323.079 226.12 319.479 225.44 315.399 225.44H302.199V273.92H312.999C316.999 273.92 320.639 273.28 323.919 272C327.279 270.72 330.159 269 332.559 266.84C334.959 264.6 336.799 262.04 338.079 259.16C339.439 256.2 340.119 253.04 340.119 249.68ZM358.599 249.68C358.599 254 357.759 258.56 356.079 263.36C354.399 268.08 351.759 272.44 348.159 276.44C344.639 280.36 340.079 283.6 334.479 286.16C328.879 288.72 322.199 290 314.439 290H284.919V209.36H315.759C322.639 209.36 328.719 210.6 333.999 213.08C339.359 215.48 343.839 218.6 347.439 222.44C351.119 226.28 353.879 230.6 355.719 235.4C357.639 240.2 358.599 244.96 358.599 249.68Z" fill="white"/>
<path d="M219.88 290V209.36H237.16V273.92H272.32V290H219.88Z" fill="white"/>
</svg>
