<svg width="560" height="315" viewBox="0 0 560 315" fill="none" xmlns="http://www.w3.org/2000/svg">
<path d="M291.497 39.8774V125.085L351.609 147.898L401 88.5836L337.579 90.3449L291.497 39.8774Z" fill="#FF5F02"/>
<path d="M346.837 67.9792L343.541 28.9476L369.588 42.8156L377.195 2.92016" stroke="black" stroke-width="9.12527"/>
<path d="M210.624 169V119.774C210.624 117.254 212.667 115.211 215.187 115.211H238.798M210.624 246.223V253.979C210.624 256.499 212.667 258.542 215.187 258.542H347.731C349.873 258.542 351.61 256.499 351.61 253.979L351.61 147.898L401 88.5836L337.58 90.3449L291.497 39.8774V122.689" stroke="black" stroke-width="9.12527" stroke-linejoin="round"/>
<path d="M296.059 122.69H286.934V123.374L296.059 126.796V122.69Z" fill="black"/>
<circle cx="260.927" cy="139.229" r="18.1365" fill="black" stroke="black" stroke-width="9.12527"/>
<circle cx="264.121" cy="93.8309" r="12.6613" fill="black" stroke="black" stroke-width="9.12527"/>
<path d="M226.137 278.554L226.137 305.88M226.137 278.554L226.137 262.763M226.137 278.554L243.247 295.718M226.137 278.554L209.027 295.718" stroke="black" stroke-width="9.12527"/>
<path d="M272.676 278.554L272.676 305.88M272.676 278.554L272.676 262.763M272.676 278.554L289.786 295.718M272.676 278.554L255.566 295.718" stroke="black" stroke-width="9.12527"/>
<path d="M158.922 204.362C156.537 204.361 154.421 204 152.575 203.281C150.73 202.561 149.251 201.531 148.141 200.191C147.047 198.851 146.427 197.266 146.281 195.436L154.588 195.44C154.719 196.404 155.143 197.163 155.862 197.719C156.58 198.275 157.56 198.553 158.802 198.554C159.962 198.554 160.869 198.35 161.522 197.942C162.176 197.534 162.503 197.003 162.503 196.35C162.504 195.271 161.459 194.544 159.368 194.167L154.687 193.332C152.139 192.874 150.195 191.999 148.856 190.707C147.533 189.416 146.872 187.75 146.873 185.707C146.874 183.159 147.904 181.125 149.963 179.607C152.022 178.072 154.857 177.305 158.468 177.307C162.078 177.308 164.954 178.11 167.093 179.712C169.233 181.314 170.343 183.495 170.423 186.256L162.655 186.253C162.639 185.355 162.263 184.603 161.528 183.998C160.81 183.393 159.887 183.091 158.76 183.09C157.665 183.09 156.807 183.302 156.186 183.726C155.581 184.151 155.279 184.682 155.279 185.319C155.278 186.381 156.209 187.092 158.072 187.452L163.266 188.41C165.929 188.901 167.898 189.719 169.171 190.863C170.445 192.007 171.082 193.543 171.081 195.471C171.08 197.235 170.565 198.787 169.535 200.127C168.522 201.466 167.1 202.511 165.27 203.262C163.456 203.996 161.34 204.363 158.922 204.362ZM200.505 213.986L192.051 213.982L192.057 199.891L191.983 199.891C190.609 202.831 188.175 204.301 184.678 204.299C182.407 204.298 180.431 203.742 178.748 202.63C177.083 201.502 175.784 199.925 174.854 197.899C173.94 195.856 173.483 193.471 173.485 190.742C173.486 188.112 173.961 185.784 174.909 183.759C175.857 181.733 177.165 180.149 178.832 179.006C180.499 177.863 182.427 177.292 184.616 177.293C188.014 177.294 190.497 178.611 192.064 181.242L192.162 181.242L192.164 177.86L200.521 177.863L200.505 213.986ZM187.034 197.561C188.635 197.561 189.926 196.949 190.907 195.724C191.904 194.483 192.403 192.825 192.404 190.75C192.404 188.708 191.907 187.074 190.911 185.848C189.931 184.623 188.641 184.009 187.039 184.009C185.487 184.008 184.262 184.604 183.363 185.796C182.48 186.988 182.038 188.638 182.037 190.746C182.036 192.87 182.477 194.536 183.359 195.746C184.257 196.955 185.482 197.56 187.034 197.561ZM214.135 204.311C211.325 204.31 209.136 203.411 207.568 201.613C206.017 199.815 205.242 197.323 205.243 194.138L205.25 177.865L213.68 177.869L213.674 192.377C213.674 193.912 214.041 195.089 214.776 195.906C215.511 196.707 216.548 197.108 217.887 197.108C219.211 197.109 220.273 196.693 221.074 195.86C221.875 195.01 222.276 193.704 222.276 191.939L222.282 177.873L230.712 177.876L230.701 203.755L222.369 203.751L222.371 199.561C221.505 201.031 220.401 202.19 219.061 203.039C217.721 203.888 216.079 204.312 214.135 204.311ZM243.347 204.201C240.749 204.2 238.617 203.57 236.951 202.312C235.302 201.037 234.477 199.108 234.478 196.527C234.479 194.583 234.929 193.047 235.828 191.92C236.744 190.793 237.961 189.961 239.481 189.422C241 188.884 242.683 188.541 244.53 188.395C246.85 188.2 248.483 187.964 249.431 187.686C250.379 187.409 250.853 186.878 250.853 186.094L250.853 185.972C250.854 185.204 250.527 184.583 249.874 184.109C249.237 183.618 248.363 183.373 247.252 183.372C246.076 183.372 245.136 183.633 244.433 184.155C243.747 184.678 243.363 185.38 243.281 186.263L235.439 186.259C235.619 183.449 236.74 181.26 238.799 179.693C240.874 178.109 243.791 177.318 247.548 177.32C251.306 177.321 254.189 178.115 256.198 179.7C258.207 181.27 259.211 183.484 259.21 186.343L259.202 203.767L250.968 203.763L250.97 200.136L250.872 200.136C250.103 201.525 249.114 202.554 247.905 203.223C246.696 203.876 245.176 204.202 243.347 204.201ZM245.922 198.688C247.327 198.689 248.512 198.306 249.476 197.538C250.44 196.754 250.923 195.725 250.923 194.451L250.924 192.098C250.483 192.31 249.87 192.498 249.086 192.661C248.302 192.824 247.387 192.995 246.341 193.175C245.214 193.354 244.282 193.68 243.547 194.154C242.828 194.627 242.468 195.289 242.468 196.138C242.467 196.939 242.786 197.568 243.423 198.026C244.06 198.467 244.893 198.688 245.922 198.688ZM269.618 203.771L261.664 177.889L270.535 177.893L272.541 185.981C272.9 187.484 273.243 189.044 273.569 190.662C273.911 192.263 274.253 193.864 274.596 195.466C274.972 193.865 275.349 192.264 275.725 190.663C276.118 189.046 276.511 187.486 276.903 185.983L279.039 177.896L286.513 177.9L288.642 185.988C289.033 187.491 289.417 189.051 289.792 190.669C290.183 192.27 290.566 193.871 290.942 195.472C291.269 193.872 291.588 192.271 291.899 190.67C292.227 189.069 292.571 187.509 292.931 185.989L294.87 177.903L303.888 177.907L295.913 203.782L287.213 203.779L284.35 194.097C284.073 193.133 283.803 192.153 283.542 191.156C283.281 190.143 283.029 189.13 282.784 188.117C282.522 189.13 282.26 190.143 281.999 191.156C281.737 192.152 281.467 193.132 281.189 194.096L278.317 203.775L269.618 203.771ZM306.353 203.787L306.368 167.272L314.798 167.276L314.79 187.101L314.888 187.101L322.758 177.915L332.487 177.919L322.851 189.212L332.893 203.798L323.164 203.794L316.576 194.013L314.786 196.095L314.783 203.79L306.353 203.787Z" fill="black"/>
<path d="M183.866 240.335C182.167 240.335 180.664 239.958 179.357 239.206C178.067 238.438 177.087 237.294 176.418 235.774L176.369 235.774L176.367 239.769L168.035 239.765L168.05 203.251L176.48 203.254L176.475 217.37L176.524 217.37C178.126 214.675 180.601 213.328 183.951 213.329C186.14 213.33 188.067 213.903 189.733 215.047C191.399 216.192 192.698 217.777 193.628 219.803C194.575 221.83 195.047 224.158 195.046 226.788C195.045 229.517 194.579 231.902 193.646 233.943C192.731 235.969 191.431 237.545 189.748 238.672C188.081 239.782 186.12 240.336 183.866 240.335ZM181.491 233.595C183.044 233.596 184.269 232.992 185.168 231.783C186.067 230.575 186.517 228.908 186.518 226.785C186.519 224.677 186.07 223.027 185.172 221.834C184.274 220.641 183.049 220.044 181.497 220.043C179.912 220.043 178.622 220.655 177.624 221.88C176.627 223.104 176.128 224.738 176.127 226.78C176.127 228.855 176.624 230.514 177.62 231.756C178.616 232.981 179.907 233.595 181.491 233.595ZM211.264 240.372C208.552 240.37 206.175 239.814 204.133 238.702C202.091 237.59 200.499 236.021 199.356 233.995C198.214 231.968 197.643 229.583 197.644 226.838C197.645 224.126 198.218 221.758 199.362 219.732C200.507 217.69 202.101 216.115 204.143 215.004C206.186 213.878 208.563 213.315 211.275 213.316C213.971 213.318 216.34 213.882 218.381 215.01C220.439 216.122 222.032 217.699 223.158 219.742C224.301 221.769 224.872 224.138 224.871 226.85C224.869 229.594 224.297 231.979 223.152 234.005C222.024 236.014 220.43 237.582 218.371 238.708C216.329 239.818 213.96 240.373 211.264 240.372ZM211.267 233.657C212.737 233.657 213.946 233.07 214.894 231.894C215.859 230.718 216.341 229.035 216.342 226.846C216.343 224.657 215.862 222.974 214.899 221.797C213.952 220.621 212.743 220.032 211.272 220.031C209.802 220.031 208.585 220.618 207.62 221.794C206.672 222.97 206.198 224.653 206.197 226.842C206.196 229.031 206.669 230.714 207.616 231.891C208.563 233.067 209.78 233.656 211.267 233.657ZM225.331 239.789L234.453 226.609L226.028 213.911L235.12 213.915L236.907 216.93C237.315 217.665 237.707 218.376 238.083 219.062C238.458 219.749 238.817 220.419 239.16 221.072C239.536 220.419 239.912 219.749 240.288 219.063C240.664 218.377 241.065 217.667 241.49 216.932L243.329 213.918L252.299 213.922L243.716 226.392L252.68 239.801L243.539 239.797L241.58 236.586C241.123 235.801 240.69 235.042 240.282 234.306C239.874 233.571 239.466 232.852 239.058 232.149C238.649 232.851 238.24 233.57 237.831 234.305C237.423 235.04 236.981 235.8 236.507 236.584L234.472 239.793L225.331 239.789Z" fill="black"/>
</svg>
