<svg width="560" height="250" viewBox="0 0 560 250" fill="none" xmlns="http://www.w3.org/2000/svg">
<g clip-path="url(#clip0_387_46)">
<rect width="560" height="250" fill="white"/>
<path d="M41.05 201.6C33.15 201.6 28.8 196.25 28.8 187.85C28.8 179.45 33.15 174.15 41.05 174.15C46.35 174.15 50 176.7 51.55 181L45.55 183.6C45.1 181.6 43.65 180 41.05 180C38.05 180 36.5 182.15 36.5 185.45V190.35C36.5 193.65 38.05 195.75 41.05 195.75C44 195.75 45.2 193.95 45.95 191.85L51.7 194.35C49.95 199.35 46.2 201.6 41.05 201.6ZM67.9801 201H64.6301C59.5801 201 57.2801 198.45 57.2801 193.8V164H64.6801V195.25H67.9801V201ZM73.4168 205.25V174.75H80.8168V203.8C80.8168 208.45 78.5668 211 73.4168 211H69.5168V205.25H73.4168ZM77.1168 171.95C74.1168 171.95 72.8168 170.4 72.8168 168.3V167.2C72.8168 165.1 74.1168 163.55 77.1168 163.55C80.1168 163.55 81.4168 165.1 81.4168 167.2V168.3C81.4168 170.4 80.1168 171.95 77.1168 171.95ZM102.773 189.35H87.9234V182.15H102.773V189.35ZM119.034 201.6C113.984 201.6 110.684 199.9 107.984 196.9L112.334 192.5C114.184 194.55 116.434 195.85 119.284 195.85C122.184 195.85 123.184 194.9 123.184 193.35C123.184 192.05 122.384 191.4 120.534 191.15L117.684 190.8C111.734 190.05 108.834 187.45 108.834 182.7C108.834 177.65 112.784 174.15 119.034 174.15C124.534 174.15 127.084 175.65 129.734 178.25L125.484 182.6C123.834 180.95 121.634 179.9 119.434 179.9C116.934 179.9 115.934 180.8 115.934 182.1C115.934 183.5 116.534 184.25 118.684 184.55L121.634 184.95C127.334 185.7 130.284 188.3 130.284 192.85C130.284 197.9 125.784 201.6 119.034 201.6ZM140.029 171.95C137.029 171.95 135.729 170.4 135.729 168.3V167.2C135.729 165.1 137.029 163.55 140.029 163.55C143.029 163.55 144.329 165.1 144.329 167.2V168.3C144.329 170.4 143.029 171.95 140.029 171.95ZM136.329 201V174.75H143.729V201H136.329ZM159.036 201H151.636V174.75H159.036V179.2H159.336C160.286 176.4 162.486 174.15 166.386 174.15C169.986 174.15 172.586 176 173.736 179.45H173.886C174.836 176.5 177.886 174.15 181.886 174.15C186.936 174.15 189.736 177.95 189.736 184.55V201H182.336V185.15C182.336 181.75 181.186 180.15 178.736 180.15C176.536 180.15 174.386 181.4 174.386 184V201H166.986V185.15C166.986 181.75 165.786 180.15 163.386 180.15C161.236 180.15 159.036 181.4 159.036 184V201ZM197.313 211V174.75H204.713V179.15H204.963C205.713 176.25 208.613 174.15 212.013 174.15C218.663 174.15 222.113 178.95 222.113 187.85C222.113 196.75 218.663 201.6 212.013 201.6C208.613 201.6 205.713 199.45 204.963 196.6H204.713V211H197.313ZM209.563 195.6C212.363 195.6 214.413 193.45 214.413 190.15V185.6C214.413 182.3 212.363 180.15 209.563 180.15C206.763 180.15 204.713 181.6 204.713 184V191.75C204.713 194.15 206.763 195.6 209.563 195.6ZM239.433 201H236.083C231.033 201 228.733 198.45 228.733 193.8V164H236.133V195.25H239.433V201ZM255.82 201.6C247.77 201.6 243.22 196.25 243.22 187.85C243.22 179.55 247.62 174.15 255.52 174.15C264.22 174.15 267.72 180.45 267.72 187.55V189.75H250.87V190.15C250.87 193.6 252.72 195.8 256.67 195.8C259.77 195.8 261.47 194.35 263.12 192.65L266.82 197.25C264.47 199.95 260.62 201.6 255.82 201.6ZM255.67 179.6C252.72 179.6 250.87 181.75 250.87 185V185.4H260.07V184.95C260.07 181.75 258.62 179.6 255.67 179.6ZM288.484 189.35H273.634V182.15H288.484V189.35ZM304.745 201.6C299.695 201.6 296.395 199.9 293.695 196.9L298.045 192.5C299.895 194.55 302.145 195.85 304.995 195.85C307.895 195.85 308.895 194.9 308.895 193.35C308.895 192.05 308.095 191.4 306.245 191.15L303.395 190.8C297.445 190.05 294.545 187.45 294.545 182.7C294.545 177.65 298.495 174.15 304.745 174.15C310.245 174.15 312.795 175.65 315.445 178.25L311.195 182.6C309.545 180.95 307.345 179.9 305.145 179.9C302.645 179.9 301.645 180.8 301.645 182.1C301.645 183.5 302.245 184.25 304.395 184.55L307.345 184.95C313.045 185.7 315.995 188.3 315.995 192.85C315.995 197.9 311.495 201.6 304.745 201.6ZM335.249 201H330.849C325.749 201 323.049 198.35 323.049 193.35V180.5H319.349V174.75H321.199C323.199 174.75 323.799 173.75 323.799 171.95V167.65H330.449V174.75H335.649V180.5H330.449V195.25H335.249V201ZM365.29 201H361.19C358.54 201 356.64 199.2 356.19 196.4H355.89C355.09 199.8 352.19 201.6 348.19 201.6C342.94 201.6 340.04 198.5 340.04 193.95C340.04 188.4 344.34 185.75 351.29 185.75H355.44V184.1C355.44 181.55 354.19 179.95 351.09 179.95C348.14 179.95 346.59 181.45 345.44 183.05L341.04 179.15C343.14 176.05 346.14 174.15 351.64 174.15C359.04 174.15 362.84 177.55 362.84 183.75V195.25H365.29V201ZM350.94 196.45C353.39 196.45 355.44 195.45 355.44 193.05V189.95H351.84C348.99 189.95 347.49 191 347.49 192.9V193.65C347.49 195.55 348.74 196.45 350.94 196.45ZM384.564 201H380.164C375.064 201 372.364 198.35 372.364 193.35V180.5H368.664V174.75H370.514C372.514 174.75 373.114 173.75 373.114 171.95V167.65H379.764V174.75H384.964V180.5H379.764V195.25H384.564V201ZM400.004 201.6C394.954 201.6 391.654 199.9 388.954 196.9L393.304 192.5C395.154 194.55 397.404 195.85 400.254 195.85C403.154 195.85 404.154 194.9 404.154 193.35C404.154 192.05 403.354 191.4 401.504 191.15L398.654 190.8C392.704 190.05 389.804 187.45 389.804 182.7C389.804 177.65 393.754 174.15 400.004 174.15C405.504 174.15 408.054 175.65 410.704 178.25L406.454 182.6C404.804 180.95 402.604 179.9 400.404 179.9C397.904 179.9 396.904 180.8 396.904 182.1C396.904 183.5 397.504 184.25 399.654 184.55L402.604 184.95C408.304 185.7 411.254 188.3 411.254 192.85C411.254 197.9 406.754 201.6 400.004 201.6Z" fill="black"/>
<path d="M41.95 138H36.95C34.2 138 32.7 136.25 32.7 133.75V115.7H28.45V112.2H30.85C32.55 112.2 33.1 111.6 33.1 109.85V105.05H36.7V112.2H42.35V115.7H36.7V134.5H41.95V138ZM59.334 138.6C52.434 138.6 47.684 133.3 47.684 125.1C47.684 116.9 52.434 111.6 59.334 111.6C66.234 111.6 70.984 116.9 70.984 125.1C70.984 133.3 66.234 138.6 59.334 138.6ZM59.334 135.05C63.634 135.05 66.684 132.4 66.684 126.95V123.25C66.684 117.8 63.634 115.15 59.334 115.15C55.034 115.15 51.984 117.8 51.984 123.25V126.95C51.984 132.4 55.034 135.05 59.334 135.05ZM82.5625 138H78.5625V112.2H82.5625V116.4H82.7625C84.0125 113.5 86.2125 111.6 90.0625 111.6C95.3625 111.6 98.7125 115.2 98.7125 121.45V138H94.7125V122.15C94.7125 117.55 92.7125 115.2 88.8625 115.2C85.6625 115.2 82.5625 116.8 82.5625 120.1V138ZM115.73 138.6C110.98 138.6 107.83 136.6 105.53 133.55L108.38 131.25C110.38 133.75 112.78 135.2 116.03 135.2C119.43 135.2 121.43 133.65 121.43 131C121.43 129 120.33 127.45 116.93 126.95L114.88 126.65C110.13 125.95 106.58 124 106.58 119.2C106.58 114.1 110.53 111.6 115.78 111.6C119.93 111.6 122.68 113.15 124.78 115.75L122.13 118.15C120.98 116.55 118.78 115 115.48 115C112.18 115 110.43 116.55 110.43 119C110.43 121.5 112.18 122.5 115.38 123L117.38 123.3C123.08 124.15 125.28 126.65 125.28 130.55C125.28 135.55 121.63 138.6 115.73 138.6ZM133.346 138V101H137.346V124.45H137.546L141.496 120.05L148.796 112.2H153.646L144.096 122.4L154.596 138H149.746L141.196 124.85L137.346 128.8V138H133.346ZM170.363 129.75L176.613 112.2H180.563L169.013 144C167.863 147.1 166.813 148 163.013 148H160.963V144.5H165.013L166.963 139L157.313 112.2H161.313L167.513 129.75L168.713 133.95H168.963L170.363 129.75ZM186.22 145.55H182.62L195.67 101H199.27L186.22 145.55Z" fill="black"/>
<rect y="239" width="588" height="11" fill="#DB5855"/>
</g>
<defs>
<clipPath id="clip0_387_46">
<rect width="560" height="250" fill="white"/>
</clipPath>
</defs>
</svg>
