<svg width="560" height="250" viewBox="0 0 560 250" fill="none" xmlns="http://www.w3.org/2000/svg">
<g clip-path="url(#clip0_357_58)">
<rect width="560" height="250" fill="white"/>
<path d="M41.05 201.6C33.15 201.6 28.8 196.25 28.8 187.85C28.8 179.45 33.15 174.15 41.05 174.15C46.35 174.15 50 176.7 51.55 181L45.55 183.6C45.1 181.6 43.65 180 41.05 180C38.05 180 36.5 182.15 36.5 185.45V190.35C36.5 193.65 38.05 195.75 41.05 195.75C44 195.75 45.2 193.95 45.95 191.85L51.7 194.35C49.95 199.35 46.2 201.6 41.05 201.6ZM67.9801 201H64.6301C59.5801 201 57.2801 198.45 57.2801 193.8V164H64.6801V195.25H67.9801V201ZM84.0668 201.6C76.3668 201.6 71.7668 196.3 71.7668 187.85C71.7668 179.4 76.3668 174.15 84.0668 174.15C91.7668 174.15 96.3668 179.4 96.3668 187.85C96.3668 196.3 91.7668 201.6 84.0668 201.6ZM84.0668 195.75C86.9668 195.75 88.6668 193.85 88.6668 190.55V185.2C88.6668 181.9 86.9668 180 84.0668 180C81.1668 180 79.4668 181.9 79.4668 185.2V190.55C79.4668 193.85 81.1668 195.75 84.0668 195.75ZM102.639 205.25V174.75H110.039V203.8C110.039 208.45 107.789 211 102.639 211H98.7395V205.25H102.639ZM106.339 171.95C103.339 171.95 102.039 170.4 102.039 168.3V167.2C102.039 165.1 103.339 163.55 106.339 163.55C109.339 163.55 110.639 165.1 110.639 167.2V168.3C110.639 170.4 109.339 171.95 106.339 171.95ZM133.446 201V196.6H133.196C132.296 199.25 130.146 201.6 125.846 201.6C120.496 201.6 117.646 197.85 117.646 191.25V174.75H125.046V190.6C125.046 193.8 126.096 195.6 128.796 195.6C131.096 195.6 133.446 194.3 133.446 191.8V174.75H140.846V201H133.446ZM156.131 201H148.731V174.75H156.131V180.45H156.381C156.981 177.55 158.981 174.75 163.081 174.75H164.381V181.65H162.531C158.231 181.65 156.131 182.6 156.131 185.65V201ZM180.652 201.6C172.602 201.6 168.052 196.25 168.052 187.85C168.052 179.55 172.452 174.15 180.352 174.15C189.052 174.15 192.552 180.45 192.552 187.55V189.75H175.702V190.15C175.702 193.6 177.552 195.8 181.502 195.8C184.602 195.8 186.302 194.35 187.952 192.65L191.652 197.25C189.302 199.95 185.452 201.6 180.652 201.6ZM180.502 179.6C177.552 179.6 175.702 181.75 175.702 185V185.4H184.902V184.95C184.902 181.75 183.452 179.6 180.502 179.6ZM213.316 189.35H198.466V182.15H213.316V189.35ZM220.432 211V174.75H227.832V179.15H228.082C228.832 176.25 231.732 174.15 235.132 174.15C241.782 174.15 245.232 178.95 245.232 187.85C245.232 196.75 241.782 201.6 235.132 201.6C231.732 201.6 228.832 199.45 228.082 196.6H227.832V211H220.432ZM232.682 195.6C235.482 195.6 237.532 193.45 237.532 190.15V185.6C237.532 182.3 235.482 180.15 232.682 180.15C229.882 180.15 227.832 181.6 227.832 184V191.75C227.832 194.15 229.882 195.6 232.682 195.6ZM262.552 201H259.202C254.152 201 251.852 198.45 251.852 193.8V164H259.252V195.25H262.552V201ZM283.489 201V196.6H283.239C282.339 199.25 280.189 201.6 275.889 201.6C270.539 201.6 267.689 197.85 267.689 191.25V174.75H275.089V190.6C275.089 193.8 276.139 195.6 278.839 195.6C281.139 195.6 283.489 194.3 283.489 191.8V174.75H290.889V201H283.489ZM307.674 201.6C302.624 201.6 299.324 199.9 296.624 196.9L300.974 192.5C302.824 194.55 305.074 195.85 307.924 195.85C310.824 195.85 311.824 194.9 311.824 193.35C311.824 192.05 311.024 191.4 309.174 191.15L306.324 190.8C300.374 190.05 297.474 187.45 297.474 182.7C297.474 177.65 301.424 174.15 307.674 174.15C313.174 174.15 315.724 175.65 318.374 178.25L314.124 182.6C312.474 180.95 310.274 179.9 308.074 179.9C305.574 179.9 304.574 180.8 304.574 182.1C304.574 183.5 305.174 184.25 307.324 184.55L310.274 184.95C315.974 185.7 318.924 188.3 318.924 192.85C318.924 197.9 314.424 201.6 307.674 201.6Z" fill="black"/>
<path d="M41.95 138H36.95C34.2 138 32.7 136.25 32.7 133.75V115.7H28.45V112.2H30.85C32.55 112.2 33.1 111.6 33.1 109.85V105.05H36.7V112.2H42.35V115.7H36.7V134.5H41.95V138ZM59.334 138.6C52.434 138.6 47.684 133.3 47.684 125.1C47.684 116.9 52.434 111.6 59.334 111.6C66.234 111.6 70.984 116.9 70.984 125.1C70.984 133.3 66.234 138.6 59.334 138.6ZM59.334 135.05C63.634 135.05 66.684 132.4 66.684 126.95V123.25C66.684 117.8 63.634 115.15 59.334 115.15C55.034 115.15 51.984 117.8 51.984 123.25V126.95C51.984 132.4 55.034 135.05 59.334 135.05ZM82.5625 138H78.5625V112.2H82.5625V116.4H82.7625C84.0125 113.5 86.2125 111.6 90.0625 111.6C95.3625 111.6 98.7125 115.2 98.7125 121.45V138H94.7125V122.15C94.7125 117.55 92.7125 115.2 88.8625 115.2C85.6625 115.2 82.5625 116.8 82.5625 120.1V138ZM115.73 138.6C110.98 138.6 107.83 136.6 105.53 133.55L108.38 131.25C110.38 133.75 112.78 135.2 116.03 135.2C119.43 135.2 121.43 133.65 121.43 131C121.43 129 120.33 127.45 116.93 126.95L114.88 126.65C110.13 125.95 106.58 124 106.58 119.2C106.58 114.1 110.53 111.6 115.78 111.6C119.93 111.6 122.68 113.15 124.78 115.75L122.13 118.15C120.98 116.55 118.78 115 115.48 115C112.18 115 110.43 116.55 110.43 119C110.43 121.5 112.18 122.5 115.38 123L117.38 123.3C123.08 124.15 125.28 126.65 125.28 130.55C125.28 135.55 121.63 138.6 115.73 138.6ZM133.346 138V101H137.346V124.45H137.546L141.496 120.05L148.796 112.2H153.646L144.096 122.4L154.596 138H149.746L141.196 124.85L137.346 128.8V138H133.346ZM170.363 129.75L176.613 112.2H180.563L169.013 144C167.863 147.1 166.813 148 163.013 148H160.963V144.5H165.013L166.963 139L157.313 112.2H161.313L167.513 129.75L168.713 133.95H168.963L170.363 129.75ZM186.22 145.55H182.62L195.67 101H199.27L186.22 145.55Z" fill="black"/>
<rect y="239" width="588" height="11" fill="#DB5855"/>
</g>
<defs>
<clipPath id="clip0_357_58">
<rect width="560" height="250" fill="white"/>
</clipPath>
</defs>
</svg>
