<svg width="560" height="250" viewBox="0 0 560 250" fill="none" xmlns="http://www.w3.org/2000/svg">
<rect width="560" height="250" fill="white"/>
<mask id="mask0_277_38" style="mask-type:alpha" maskUnits="userSpaceOnUse" x="59" y="80" width="442" height="90">
<path d="M488.06 109.775V129.726C488.06 133.059 488.279 135.27 488.717 136.36C489.154 137.419 490.061 137.949 491.436 137.949C493.499 137.949 495.155 136.672 496.405 134.118L501 135.659C498.625 141.578 493.546 144.537 485.763 144.537C481.481 144.537 478.262 143.509 476.105 141.453C473.949 139.366 472.871 136.251 472.871 132.109V109.775H467.292V104.729L468.464 104.776C472.245 104.776 475.48 103.576 478.168 101.178C480.856 98.7796 482.481 95.727 483.044 92.0203H488.06V104.729H499.593V109.775H488.06Z" fill="url(#paint0_linear_277_38)"/>
<path d="M451.773 113.369C451.648 114.148 451.539 115.005 451.445 115.939C451.352 116.874 451.273 117.948 451.211 119.163C451.148 120.378 451.101 121.78 451.07 123.368C451.039 124.957 451.023 126.794 451.023 128.881C451.023 131.622 451.336 133.694 451.961 135.096C452.586 136.466 453.743 137.151 455.43 137.151C457.493 137.151 459.15 135.874 460.4 133.32L464.994 134.862C462.619 140.78 457.54 143.739 449.758 143.739C447.288 143.739 445.21 143.381 443.522 142.665C441.866 141.948 440.522 140.936 439.49 139.628C438.49 138.319 437.771 136.762 437.334 134.955C436.896 133.118 436.677 131.109 436.677 128.928C436.677 126.592 436.693 124.567 436.724 122.854C436.787 121.11 436.865 119.599 436.959 118.322C437.052 117.014 437.162 115.892 437.287 114.958C437.412 114.024 437.537 113.183 437.662 112.435H427.582C427.395 116.048 427.285 119.241 427.254 122.013C427.223 124.754 427.176 127.168 427.113 129.255C427.082 131.342 426.988 133.164 426.832 134.722C426.676 136.248 426.363 137.603 425.894 138.787C425.551 139.628 425.16 140.375 424.722 141.029C424.285 141.652 423.722 142.166 423.035 142.571C422.378 142.976 421.55 143.272 420.55 143.459C419.581 143.677 418.378 143.786 416.94 143.786C415.44 143.786 414.221 143.365 413.283 142.524C412.377 141.715 411.923 140.733 411.923 139.581C411.923 138.428 412.095 137.447 412.439 136.637C412.814 135.796 413.267 134.94 413.799 134.068C414.361 133.195 414.955 132.23 415.58 131.171C416.237 130.112 416.831 128.772 417.362 127.153C417.924 125.502 418.378 123.508 418.721 121.172C419.096 118.805 419.284 115.892 419.284 112.435H418.815C417.315 112.497 416.143 112.918 415.299 113.696C414.486 114.475 413.721 115.643 413.002 117.201H407.517C408.079 115.519 408.72 113.992 409.439 112.622C410.189 111.22 411.001 109.974 411.877 108.884C412.783 107.732 413.611 106.828 414.361 106.174C415.143 105.52 415.971 105.037 416.846 104.726C417.753 104.383 418.784 104.165 419.94 104.072C421.128 103.978 422.597 103.931 424.347 103.931H462.556C461.838 105.738 461.197 107.264 460.634 108.51C460.072 109.725 459.572 110.722 459.134 111.501C458.696 112.248 458.306 112.793 457.962 113.136C457.649 113.478 457.368 113.665 457.118 113.696L451.773 113.369Z" fill="url(#paint1_linear_277_38)"/>
<path fill-rule="evenodd" clip-rule="evenodd" d="M487.499 158.322L485.064 155.896L482.63 158.322L485.064 160.748L487.499 158.322ZM485.064 146.982L473.685 158.322L485.064 169.663L496.444 158.322L485.064 146.982Z" fill="url(#paint2_linear_277_38)"/>
<path fill-rule="evenodd" clip-rule="evenodd" d="M400.088 135.883C399.367 134.969 399.006 133.352 399.006 131.03V102.389L376.69 105.94V110.893H377.768C379.532 110.893 380.866 111.104 381.769 111.526C382.21 111.732 382.549 111.988 382.785 112.295C383.503 113.198 383.863 114.802 383.863 117.107V131.03C383.863 133.304 383.503 134.908 382.785 135.843C382.775 135.856 382.765 135.87 382.754 135.883C382.049 136.791 380.387 137.245 377.768 137.245H376.69V142.197H405.382V137.245C402.631 137.245 400.881 136.809 400.131 135.936C400.116 135.919 400.102 135.901 400.088 135.883ZM393.241 135.883C392.786 134.164 392.692 132.44 392.692 131.03V109.788L388.956 110.382C389.997 112.66 390.177 115.171 390.177 117.107V131.03C390.177 132.471 390.073 134.184 389.616 135.883H393.241Z" fill="url(#paint3_linear_277_38)"/>
<path fill-rule="evenodd" clip-rule="evenodd" d="M389.376 87.9593C388.73 88.609 388.518 89.172 388.518 89.9674C388.518 90.8009 388.74 91.3475 389.359 91.959C390.012 92.6033 390.587 92.8233 391.405 92.8233C392.223 92.8233 392.798 92.6033 393.45 91.959C394.07 91.3475 394.292 90.8009 394.292 89.9674C394.292 89.172 394.079 88.609 393.434 87.9593C392.819 87.3414 392.261 87.1116 391.405 87.1116C390.549 87.1116 389.99 87.3414 389.376 87.9593ZM384.898 83.5078C383.101 85.3148 382.203 87.468 382.203 89.9674C382.203 92.5006 383.11 94.6623 384.923 96.4524C386.736 98.2425 388.897 99.1376 391.405 99.1376C393.913 99.1376 396.073 98.2425 397.886 96.4524C399.7 94.6623 400.606 92.5006 400.606 89.9674C400.606 87.468 399.708 85.3148 397.912 83.5078C396.116 81.7008 393.947 80.7973 391.405 80.7973C388.863 80.7973 386.694 81.7008 384.898 83.5078Z" fill="url(#paint4_linear_277_38)"/>
<path d="M321.047 130.423L325.829 132.526C324.516 136.108 322.125 138.88 318.656 140.842C315.218 142.773 311.202 143.739 306.607 143.739C300.325 143.739 294.996 141.995 290.62 138.506C286.276 134.986 284.104 130.143 284.104 123.975C284.104 117.496 286.479 112.279 291.23 108.323C295.981 104.367 302.138 102.389 309.701 102.389C314.39 102.389 318.093 103.246 320.813 104.959C323.563 106.672 324.938 108.931 324.938 111.734C324.938 113.323 324.391 114.724 323.297 115.939C322.235 117.123 320.844 117.714 319.125 117.714C315.718 117.714 313.546 115.503 312.608 111.08C312.327 109.772 311.905 108.837 311.342 108.276C310.78 107.716 309.811 107.435 308.436 107.435C305.654 107.435 303.56 108.541 302.153 110.753C300.778 112.933 300.091 116.219 300.091 120.611C300.091 126.623 300.919 130.953 302.575 133.6C304.263 136.217 306.889 137.525 310.452 137.525C315.327 137.525 318.859 135.158 321.047 130.423Z" fill="url(#paint5_linear_277_38)"/>
<path d="M332.814 142.197L341.066 115.238C341.628 113.432 341.91 112.139 341.91 111.36C341.91 110.395 341.425 109.912 340.456 109.912C338.237 109.912 335.94 112.045 333.565 116.313H329.205C331.767 111.672 334.784 108.199 338.253 105.894C341.722 103.589 345.098 102.436 348.379 102.436C350.317 102.436 351.802 103.044 352.833 104.258C353.896 105.473 354.427 107.031 354.427 108.931C354.427 110.986 353.552 115.191 351.802 121.546C358.834 108.806 364.991 102.436 370.273 102.436C371.836 102.436 373.149 102.95 374.212 103.978C375.274 104.975 375.806 106.376 375.806 108.183C375.806 110.363 375.18 112.326 373.93 114.07C372.68 115.783 371.133 116.64 369.289 116.64C367.695 116.64 366.476 115.97 365.632 114.631C364.976 113.665 364.335 113.182 363.71 113.182C361.553 113.182 358.615 116.578 354.896 123.368C351.177 130.158 348.536 136.435 346.973 142.197H332.814Z" fill="url(#paint6_linear_277_38)"/>
<path d="M317.622 166.917L306.404 158.312L294.431 166.917H290.189L299.522 150.172H313.521L322.194 166.917H317.622Z" fill="url(#paint7_linear_277_38)"/>
<path d="M317.474 80L306.316 88.6437L294.408 80H290.189L299.472 96.8202H313.396L322.022 80H317.474Z" fill="url(#paint8_linear_277_38)"/>
<path fill-rule="evenodd" clip-rule="evenodd" d="M261.553 130.128C256.143 117.811 253.438 108.887 253.438 103.356C253.438 98.1036 255.444 93.5603 259.454 89.7258C261.909 87.3787 265.299 85.689 269.624 84.6567C270.589 84.4264 271.6 84.2288 272.658 84.0639C274.605 83.7604 276.71 83.5678 278.972 83.486V88.3663C276.101 88.789 273.732 89.5414 271.866 90.6236C268.395 92.6356 266.66 95.7874 266.66 100.079C266.66 103.054 268.036 107.748 270.787 114.162C274.378 122.528 276.652 128.245 277.608 131.313C278.564 134.38 279.042 137.425 279.042 140.446C279.042 146.209 276.862 150.997 272.501 154.808C270.067 156.935 267.019 158.505 263.357 159.518C262.236 159.827 261.058 160.085 259.822 160.29C257.862 160.616 255.758 160.81 253.508 160.873V155.993C256.402 155.741 258.855 154.957 260.865 153.642C261.446 153.261 261.99 152.837 262.497 152.368C264.759 150.276 265.89 147.58 265.89 144.28C265.89 141.445 264.445 136.728 261.553 130.128ZM272.205 144.286C272.205 144.284 272.205 144.282 272.205 144.28C272.205 141.938 271.635 139.35 270.843 136.766C270.025 134.095 268.84 131.025 267.337 127.594L267.334 127.588C261.911 115.241 259.752 107.418 259.752 103.356C259.752 101.999 259.944 100.721 260.353 99.5024C260.195 105.409 262.702 111.331 264.984 116.651L264.985 116.653C268.592 125.056 270.736 130.483 271.58 133.192C272.358 135.69 272.728 138.101 272.728 140.446C272.728 141.827 272.557 143.101 272.205 144.286Z" fill="url(#paint9_linear_277_38)"/>
<path d="M230.955 138.133C228.673 139.783 226.282 141.029 223.782 141.87C221.313 142.68 218.718 143.085 215.999 143.085C212.405 143.085 209.701 142.275 207.889 140.656C206.107 139.036 205.216 137.027 205.216 134.628C205.216 131.233 207.014 128.227 210.608 125.611C214.202 122.994 220.703 120.098 230.111 116.92V113.463C230.111 111.002 229.517 109.429 228.329 108.744C227.142 108.027 225.735 107.669 224.11 107.669C220.172 107.669 217.984 109.102 217.546 111.968C217.234 113.93 216.609 115.363 215.671 116.266C214.733 117.138 213.28 117.575 211.311 117.575C209.53 117.575 208.107 117.107 207.045 116.173C206.013 115.207 205.498 114.086 205.498 112.809C205.498 109.912 207.42 107.451 211.264 105.427C215.109 103.402 220.25 102.39 226.688 102.39C230.283 102.39 233.283 102.608 235.69 103.044C238.128 103.48 240.081 104.29 241.55 105.473C243.05 106.657 244.035 107.903 244.504 109.211C245.004 110.519 245.254 112.295 245.254 114.538V132.292C245.254 134.971 246.066 136.31 247.692 136.31C249.098 136.31 249.989 135.438 250.364 133.694H254.255C254.161 136.902 252.974 139.269 250.692 140.796C248.442 142.322 245.738 143.085 242.582 143.085C236.831 143.085 232.955 141.434 230.955 138.133ZM230.111 133.086V122.153C225.766 123.96 222.922 125.595 221.578 127.059C220.266 128.523 219.609 130.034 219.609 131.591C219.609 132.775 220 133.85 220.781 134.815C221.563 135.75 222.594 136.217 223.876 136.217C225.001 136.217 226.079 135.952 227.11 135.423C228.142 134.893 229.142 134.114 230.111 133.086ZM218.718 96.0353L225.47 81.0373H244.504L222.797 96.0353H218.718Z" fill="url(#paint10_linear_277_38)"/>
<path d="M179.377 108.956V128.949C179.377 132.289 179.154 134.506 178.707 135.598C178.26 136.66 177.335 137.19 175.932 137.19C173.826 137.19 172.135 135.91 170.859 133.351L166.17 134.896C168.594 140.827 173.778 143.792 181.722 143.792C186.092 143.792 189.378 142.762 191.579 140.702C193.78 138.611 194.881 135.489 194.881 131.337V108.956H200.575V103.899L199.379 103.946C195.519 103.946 192.217 102.744 189.474 100.341C186.73 97.9373 185.071 94.8782 184.497 91.1637H179.377V103.899H167.605V108.956H179.377Z" fill="url(#paint11_linear_277_38)"/>
<path fill-rule="evenodd" clip-rule="evenodd" d="M174.377 158.628C174.377 156.323 175.205 154.338 176.862 152.671C178.518 151.005 180.519 150.172 182.863 150.172C185.207 150.172 187.207 151.005 188.864 152.671C190.52 154.338 191.349 156.323 191.349 158.628C191.349 160.965 190.513 162.958 188.84 164.609C187.168 166.26 185.176 167.085 182.863 167.085C180.55 167.085 178.558 166.26 176.885 164.609C175.213 162.958 174.377 160.965 174.377 158.628Z" fill="url(#paint12_linear_277_38)"/>
<path fill-rule="evenodd" clip-rule="evenodd" d="M133.788 105.629C133.909 105.754 134.026 105.883 134.14 106.015C134.453 106.38 134.737 106.772 134.99 107.19C135.591 106.755 136.2 106.348 136.816 105.969C137.533 105.528 138.261 105.126 138.998 104.761C140.003 104.265 141.026 103.839 142.069 103.484C142.679 103.276 143.3 103.101 143.927 102.947C145.86 102.474 147.866 102.237 149.945 102.237C153.54 102.237 156.243 103.047 158.056 104.667C159.837 106.286 160.728 108.295 160.728 110.694C160.728 114.089 158.931 117.095 155.337 119.711C154.502 120.319 153.511 120.941 152.364 121.579C150.962 122.358 149.326 123.159 147.457 123.983C147.017 124.177 146.565 124.372 146.099 124.568C145.947 124.632 145.794 124.696 145.64 124.76C143.317 125.727 140.683 126.723 137.738 127.749C137.117 127.965 136.482 128.183 135.834 128.402V131.859C135.834 134.32 136.428 135.893 137.615 136.578C138.122 136.884 138.669 137.125 139.256 137.3C140.044 137.535 140.903 137.653 141.835 137.653C144.376 137.653 146.188 137.056 147.271 135.864C147.867 135.208 148.243 134.371 148.398 133.354C148.621 131.954 149.004 130.823 149.545 129.962C149.762 129.616 150.005 129.315 150.274 129.056C151.142 128.248 152.453 127.814 154.207 127.755C154.346 127.75 154.488 127.748 154.634 127.748C156.415 127.748 157.837 128.215 158.9 129.149C159.931 130.115 160.447 131.236 160.447 132.513C160.447 135.41 158.525 137.871 154.68 139.896C153.349 140.597 151.863 141.176 150.22 141.635C147.771 142.318 144.976 142.732 141.835 142.875C141 142.914 140.14 142.933 139.256 142.933C138.148 142.933 137.097 142.912 136.102 142.87C133.869 142.778 131.92 142.58 130.255 142.279C127.817 141.842 125.863 141.033 124.394 139.849C122.894 138.665 121.91 137.419 121.441 136.111C120.941 134.803 120.691 133.027 120.691 130.785V113.03C120.691 112.927 120.69 112.826 120.687 112.726C120.645 111.003 120.24 109.88 119.47 109.356C119.134 109.126 118.728 109.012 118.253 109.012C116.846 109.012 115.956 109.884 115.581 111.628H111.689C111.698 111.347 111.714 111.071 111.739 110.802C111.955 108.495 112.792 106.665 114.252 105.314C114.558 105.03 114.891 104.768 115.252 104.526C116.176 103.9 117.176 103.402 118.253 103.033C118.561 102.927 118.875 102.832 119.196 102.747C120.484 102.407 121.873 102.237 123.363 102.237C128.122 102.237 131.597 103.368 133.788 105.629ZM126.408 108.79C128.458 109.166 129.208 109.9 129.519 110.353V132.633C129.544 132.623 129.513 133.925 129.947 135.718C129.374 135.535 128.803 135.292 128.331 134.912C127.961 134.62 127.511 134.317 127.339 133.857C127.229 133.57 127.005 132.664 127.005 130.785V113.03C127.005 111.812 126.896 110.306 126.408 108.79ZM142.148 120.029C140.611 121.011 138.506 122.058 135.834 123.169V112.236C136.391 111.645 136.959 111.136 137.537 110.709C137.964 110.394 138.396 110.125 138.834 109.9C139.866 109.37 140.944 109.105 142.069 109.105C142.765 109.105 143.388 109.243 143.936 109.519C144.397 109.751 144.806 110.08 145.163 110.507C145.945 111.473 146.335 112.547 146.335 113.731C146.335 115.288 145.679 116.799 144.366 118.263C144.272 118.365 144.171 118.469 144.062 118.573C143.573 119.041 142.935 119.527 142.148 120.029ZM152.65 113.781C152.65 113.764 152.65 113.748 152.65 113.731C152.65 111.897 152.22 110.174 151.43 108.623C153.02 108.79 153.648 109.203 153.834 109.362C154.284 109.779 154.414 110.094 154.414 110.694C154.414 111.348 154.217 112.377 152.65 113.781Z" fill="url(#paint13_linear_277_38)"/>
<path fill-rule="evenodd" clip-rule="evenodd" d="M118.259 151.316L92.0989 86.8386H86.6137L59 151.316H118.259ZM69.3547 145.663C69.3547 145.663 71.8145 139.526 72.6896 137.346L83.4257 109.92L95.8964 140.29C96.1464 140.913 98.1592 145.663 98.1592 145.663H93.7398H74.4712H69.3547Z" fill="url(#paint14_linear_277_38)"/>
</mask>
<g mask="url(#mask0_277_38)">
<rect x="59" y="80" width="442" height="90" fill="url(#paint15_linear_277_38)"/>
<path d="M302.034 74.248L381.893 50.0824L424.5 190.887L344.641 215.052C332.36 158.842 324.972 127.469 302.034 74.248Z" fill="url(#paint16_linear_277_38)"/>
<path d="M320.5 74L421.822 50.0824L464.43 190.887L384.571 215.052C374.578 158.6 352.207 125.668 320.5 74Z" fill="url(#paint17_linear_277_38)"/>
<path d="M391.893 74.248L471.752 50.0824L514.359 190.887L434.5 215.052C426.752 143.205 419.017 109.353 391.893 74.248Z" fill="url(#paint18_linear_277_38)"/>
<path d="M464 74.248L543.859 50.0824L586.467 190.887L506.608 215.052C493.738 158.333 489.907 124.975 464 74.248Z" fill="#1E1338"/>
<rect width="83.4353" height="147.11" transform="matrix(-0.957138 -0.289633 -0.289633 0.957138 250.966 74.248)" fill="url(#paint19_linear_277_38)"/>
<path d="M209 69L129.141 44.8344L86.5331 185.639L166.392 209.804C193.5 150 170.5 121.5 209 69Z" fill="url(#paint20_linear_277_38)"/>
<path d="M171.107 74.248L91.2483 50.0824L48.6405 190.887L128.5 215.052C139.736 154.854 140.729 115.988 171.107 74.248Z" fill="url(#paint21_linear_277_38)"/>
<path d="M106.467 74.2479L26.6078 50.0823L-16 190.886L63.8591 215.052C101 149.5 79.035 122.98 106.467 74.2479Z" fill="#1E1338"/>
</g>
<defs>
<linearGradient id="paint0_linear_277_38" x1="270" y1="95.5" x2="280" y2="170" gradientUnits="userSpaceOnUse">
<stop stop-color="#00D1FF"/>
<stop offset="1" stop-color="#7000FF"/>
</linearGradient>
<linearGradient id="paint1_linear_277_38" x1="270" y1="95.5" x2="280" y2="170" gradientUnits="userSpaceOnUse">
<stop stop-color="#00D1FF"/>
<stop offset="1" stop-color="#7000FF"/>
</linearGradient>
<linearGradient id="paint2_linear_277_38" x1="270" y1="95.5" x2="280" y2="170" gradientUnits="userSpaceOnUse">
<stop stop-color="#00D1FF"/>
<stop offset="1" stop-color="#7000FF"/>
</linearGradient>
<linearGradient id="paint3_linear_277_38" x1="270" y1="95.5" x2="280" y2="170" gradientUnits="userSpaceOnUse">
<stop stop-color="#00D1FF"/>
<stop offset="1" stop-color="#7000FF"/>
</linearGradient>
<linearGradient id="paint4_linear_277_38" x1="270" y1="95.5" x2="280" y2="170" gradientUnits="userSpaceOnUse">
<stop stop-color="#00D1FF"/>
<stop offset="1" stop-color="#7000FF"/>
</linearGradient>
<linearGradient id="paint5_linear_277_38" x1="270" y1="95.5" x2="280" y2="170" gradientUnits="userSpaceOnUse">
<stop stop-color="#00D1FF"/>
<stop offset="1" stop-color="#7000FF"/>
</linearGradient>
<linearGradient id="paint6_linear_277_38" x1="270" y1="95.5" x2="280" y2="170" gradientUnits="userSpaceOnUse">
<stop stop-color="#00D1FF"/>
<stop offset="1" stop-color="#7000FF"/>
</linearGradient>
<linearGradient id="paint7_linear_277_38" x1="270" y1="95.5" x2="280" y2="170" gradientUnits="userSpaceOnUse">
<stop stop-color="#00D1FF"/>
<stop offset="1" stop-color="#7000FF"/>
</linearGradient>
<linearGradient id="paint8_linear_277_38" x1="270" y1="95.5" x2="280" y2="170" gradientUnits="userSpaceOnUse">
<stop stop-color="#00D1FF"/>
<stop offset="1" stop-color="#7000FF"/>
</linearGradient>
<linearGradient id="paint9_linear_277_38" x1="270" y1="95.5" x2="280" y2="170" gradientUnits="userSpaceOnUse">
<stop stop-color="#00D1FF"/>
<stop offset="1" stop-color="#7000FF"/>
</linearGradient>
<linearGradient id="paint10_linear_277_38" x1="270" y1="95.5" x2="280" y2="170" gradientUnits="userSpaceOnUse">
<stop stop-color="#00D1FF"/>
<stop offset="1" stop-color="#7000FF"/>
</linearGradient>
<linearGradient id="paint11_linear_277_38" x1="270" y1="95.5" x2="280" y2="170" gradientUnits="userSpaceOnUse">
<stop stop-color="#00D1FF"/>
<stop offset="1" stop-color="#7000FF"/>
</linearGradient>
<linearGradient id="paint12_linear_277_38" x1="270" y1="95.5" x2="280" y2="170" gradientUnits="userSpaceOnUse">
<stop stop-color="#00D1FF"/>
<stop offset="1" stop-color="#7000FF"/>
</linearGradient>
<linearGradient id="paint13_linear_277_38" x1="270" y1="95.5" x2="280" y2="170" gradientUnits="userSpaceOnUse">
<stop stop-color="#00D1FF"/>
<stop offset="1" stop-color="#7000FF"/>
</linearGradient>
<linearGradient id="paint14_linear_277_38" x1="270" y1="95.5" x2="280" y2="170" gradientUnits="userSpaceOnUse">
<stop stop-color="#00D1FF"/>
<stop offset="1" stop-color="#7000FF"/>
</linearGradient>
<linearGradient id="paint15_linear_277_38" x1="280" y1="91.5" x2="280" y2="155" gradientUnits="userSpaceOnUse">
<stop stop-color="#EB6DA3"/>
<stop offset="1" stop-color="#F3B0A6"/>
</linearGradient>
<linearGradient id="paint16_linear_277_38" x1="346.5" y1="107" x2="338.5" y2="140.5" gradientUnits="userSpaceOnUse">
<stop stop-color="#E95A9E"/>
<stop offset="1" stop-color="#EE8984"/>
</linearGradient>
<linearGradient id="paint17_linear_277_38" x1="382" y1="81.5" x2="377.5" y2="150" gradientUnits="userSpaceOnUse">
<stop stop-color="#6F45DD"/>
<stop offset="1" stop-color="#9E52CC"/>
</linearGradient>
<linearGradient id="paint18_linear_277_38" x1="414" y1="93.5" x2="473.415" y2="92.8978" gradientUnits="userSpaceOnUse">
<stop stop-color="#6D42E1"/>
<stop offset="1" stop-color="#482A93"/>
</linearGradient>
<linearGradient id="paint19_linear_277_38" x1="47.8152" y1="28.3144" x2="4.62408" y2="90.8509" gradientUnits="userSpaceOnUse">
<stop stop-color="#E95A9E"/>
<stop offset="1" stop-color="#EE8984"/>
</linearGradient>
<linearGradient id="paint20_linear_277_38" x1="161" y1="86" x2="175" y2="162" gradientUnits="userSpaceOnUse">
<stop stop-color="#6F45DD"/>
<stop offset="1" stop-color="#9E52CC"/>
</linearGradient>
<linearGradient id="paint21_linear_277_38" x1="159.846" y1="88.5065" x2="89.585" y2="92.8978" gradientUnits="userSpaceOnUse">
<stop stop-color="#6841D2"/>
<stop offset="1" stop-color="#4E3099"/>
</linearGradient>
</defs>
</svg>
