<svg width="560" height="250" viewBox="0 0 560 250" fill="none" xmlns="http://www.w3.org/2000/svg">
<g clip-path="url(#clip0_357_43)">
<rect width="560" height="250" fill="white"/>
<path d="M31.75 201V180.5H28.05V174.75H31.75V171.65C31.75 166.6 34.5 164 39.6 164H44.4V169.75H39.15V174.75H44.4V180.5H39.15V201H31.75ZM73.0164 201H68.9164C66.2664 201 64.3664 199.2 63.9164 196.4H63.6164C62.8164 199.8 59.9164 201.6 55.9164 201.6C50.6664 201.6 47.7664 198.5 47.7664 193.95C47.7664 188.4 52.0664 185.75 59.0164 185.75H63.1664V184.1C63.1664 181.55 61.9164 179.95 58.8164 179.95C55.8664 179.95 54.3164 181.45 53.1664 183.05L48.7664 179.15C50.8664 176.05 53.8664 174.15 59.3664 174.15C66.7664 174.15 70.5664 177.55 70.5664 183.75V195.25H73.0164V201ZM58.6664 196.45C61.1164 196.45 63.1664 195.45 63.1664 193.05V189.95H59.5664C56.7164 189.95 55.2164 191 55.2164 192.9V193.65C55.2164 195.55 56.4664 196.45 58.6664 196.45ZM87.8832 201.6C82.8332 201.6 79.5332 199.9 76.8332 196.9L81.1832 192.5C83.0332 194.55 85.2832 195.85 88.1332 195.85C91.0332 195.85 92.0332 194.9 92.0332 193.35C92.0332 192.05 91.2332 191.4 89.3832 191.15L86.5332 190.8C80.5832 190.05 77.6832 187.45 77.6832 182.7C77.6832 177.65 81.6332 174.15 87.8832 174.15C93.3832 174.15 95.9332 175.65 98.5832 178.25L94.3332 182.6C92.6832 180.95 90.4832 179.9 88.2832 179.9C85.7832 179.9 84.7832 180.8 84.7832 182.1C84.7832 183.5 85.3832 184.25 87.5332 184.55L90.4832 184.95C96.1832 185.7 99.1332 188.3 99.1332 192.85C99.1332 197.9 94.6332 201.6 87.8832 201.6ZM118.388 201H113.988C108.888 201 106.188 198.35 106.188 193.35V180.5H102.488V174.75H104.338C106.338 174.75 106.938 173.75 106.938 171.95V167.65H113.588V174.75H118.788V180.5H113.588V195.25H118.388V201ZM138.49 189.35H123.64V182.15H138.49V189.35ZM157.045 201.6C148.995 201.6 144.445 196.25 144.445 187.85C144.445 179.55 148.845 174.15 156.745 174.15C165.445 174.15 168.945 180.45 168.945 187.55V189.75H152.095V190.15C152.095 193.6 153.945 195.8 157.895 195.8C160.995 195.8 162.695 194.35 164.345 192.65L168.045 197.25C165.695 199.95 161.845 201.6 157.045 201.6ZM156.895 179.6C153.945 179.6 152.095 181.75 152.095 185V185.4H161.295V184.95C161.295 181.75 159.845 179.6 156.895 179.6ZM191.271 201V196.6H191.021C190.271 199.45 187.371 201.6 183.971 201.6C177.321 201.6 173.871 196.75 173.871 187.85C173.871 178.95 177.321 174.15 183.971 174.15C187.371 174.15 190.271 176.25 191.021 179.15H191.271V164H198.671V201H191.271ZM186.421 195.6C189.221 195.6 191.271 194.15 191.271 191.75V184C191.271 181.6 189.221 180.15 186.421 180.15C183.621 180.15 181.571 182.3 181.571 185.6V190.15C181.571 193.45 183.621 195.6 186.421 195.6ZM213.991 201H206.591V174.75H213.991V179.2H214.291C215.241 176.45 217.441 174.15 221.591 174.15C226.941 174.15 229.791 177.95 229.791 184.55V201H222.391V185.15C222.391 181.8 221.441 180.15 218.741 180.15C216.341 180.15 213.991 181.4 213.991 184V201Z" fill="black"/>
<path d="M41.95 138H36.95C34.2 138 32.7 136.25 32.7 133.75V115.7H28.45V112.2H30.85C32.55 112.2 33.1 111.6 33.1 109.85V105.05H36.7V112.2H42.35V115.7H36.7V134.5H41.95V138ZM59.334 138.6C52.434 138.6 47.684 133.3 47.684 125.1C47.684 116.9 52.434 111.6 59.334 111.6C66.234 111.6 70.984 116.9 70.984 125.1C70.984 133.3 66.234 138.6 59.334 138.6ZM59.334 135.05C63.634 135.05 66.684 132.4 66.684 126.95V123.25C66.684 117.8 63.634 115.15 59.334 115.15C55.034 115.15 51.984 117.8 51.984 123.25V126.95C51.984 132.4 55.034 135.05 59.334 135.05ZM82.5625 138H78.5625V112.2H82.5625V116.4H82.7625C84.0125 113.5 86.2125 111.6 90.0625 111.6C95.3625 111.6 98.7125 115.2 98.7125 121.45V138H94.7125V122.15C94.7125 117.55 92.7125 115.2 88.8625 115.2C85.6625 115.2 82.5625 116.8 82.5625 120.1V138ZM115.73 138.6C110.98 138.6 107.83 136.6 105.53 133.55L108.38 131.25C110.38 133.75 112.78 135.2 116.03 135.2C119.43 135.2 121.43 133.65 121.43 131C121.43 129 120.33 127.45 116.93 126.95L114.88 126.65C110.13 125.95 106.58 124 106.58 119.2C106.58 114.1 110.53 111.6 115.78 111.6C119.93 111.6 122.68 113.15 124.78 115.75L122.13 118.15C120.98 116.55 118.78 115 115.48 115C112.18 115 110.43 116.55 110.43 119C110.43 121.5 112.18 122.5 115.38 123L117.38 123.3C123.08 124.15 125.28 126.65 125.28 130.55C125.28 135.55 121.63 138.6 115.73 138.6ZM133.346 138V101H137.346V124.45H137.546L141.496 120.05L148.796 112.2H153.646L144.096 122.4L154.596 138H149.746L141.196 124.85L137.346 128.8V138H133.346ZM170.363 129.75L176.613 112.2H180.563L169.013 144C167.863 147.1 166.813 148 163.013 148H160.963V144.5H165.013L166.963 139L157.313 112.2H161.313L167.513 129.75L168.713 133.95H168.963L170.363 129.75ZM186.22 145.55H182.62L195.67 101H199.27L186.22 145.55Z" fill="black"/>
<rect y="239" width="588" height="11" fill="#DB5855"/>
</g>
<defs>
<clipPath id="clip0_357_43">
<rect width="560" height="250" fill="white"/>
</clipPath>
</defs>
</svg>
