<svg width="560" height="315" viewBox="0 0 560 315" fill="none" xmlns="http://www.w3.org/2000/svg">
<rect width="560" height="315" fill="white"/>
<path d="M208.616 172.153C208.616 167.424 211.615 161.578 216.355 157.965L213.345 184.192C211.195 182.902 208.974 180.901 208.616 176.453C203.307 180.142 197.437 185.052 197.437 188.921C197.437 192.791 208.616 208.269 208.616 208.269L201.306 246.964C195.287 247.824 188.838 246.114 188.838 239.655C188.838 236.645 191.418 233.206 194.857 233.206C192.917 227.814 197.007 220.737 200.877 220.307V218.588C200.877 218.588 198.297 217.298 198.297 214.718C198.297 211.278 201.306 210.419 201.306 210.419C201.306 210.419 192.278 197.09 192.278 190.641C192.278 184.192 200.82 176.882 208.616 172.153Z" fill="black"/>
<path d="M310.083 139.907C304.015 136.712 302.822 136.032 298.045 135.608L315.243 165.274C316.532 158.825 316.532 151.516 313.093 143.347C314.813 134.748 321.249 121.998 328.141 115.83L322.982 110.671C315.609 119.79 312.235 127.179 310.083 139.907Z" fill="black"/>
<path d="M206.466 275.771C177.653 275.771 244.048 159.267 208.118 58.77C207.578 57.2602 209.241 55.871 210.637 56.6588C352.494 136.692 344.491 280.5 320.832 280.5C296.943 280.5 298.475 242.235 273.108 242.235C237.852 242.235 222.374 275.771 206.466 275.771Z" fill="white" stroke="black" stroke-width="6.01926"/>
<path d="M218.074 147.216C219.303 119.365 217.357 82.2859 206.466 54.3477C235.971 70.402 265.342 95.2081 283.426 114.97L218.074 147.216Z" fill="black"/>
<path d="M322.122 101.642C322.122 101.642 320.352 112.294 324.701 114.97C328.195 117.12 333.3 115.83 338.03 112.391C350.928 114.54 365.546 104.651 365.546 104.651C365.546 104.651 377.803 113.25 387.044 113.25C392.633 113.25 397.363 111.093 397.363 105.511C397.363 96.4825 376.725 88.7434 362.107 88.7434C369.416 80.1445 401.662 85.7338 401.662 73.2653C401.662 66.2776 393.923 63.3765 387.044 63.3765C380.165 63.3765 370.276 64.6664 359.097 70.6856C359.097 58.2172 387.044 54.3476 387.044 42.7391C387.044 37.9841 385.324 35 378.015 35C359.097 35 338.89 67.2461 338.89 67.2461C338.89 67.2461 326.851 44.8888 316.962 44.8888C312.233 44.8888 309.223 49.2522 309.223 55.2075C309.223 61.2268 317.392 68.106 321.262 77.1349C315.243 92.183 322.122 101.642 322.122 101.642Z" fill="black"/>
<path opacity="0.2" d="M290.636 128.86C295.271 137.796 295.941 156.83 271.928 170.229C246.753 181.424 228.064 171.091 222.159 160.205C214.933 146.886 229.305 136.447 247.635 126.941C265.966 117.435 283.993 116.051 290.636 128.86Z" fill="black"/>
<path d="M286.426 125.082C291.886 135.611 284.946 153.077 267.71 162.016C250.474 170.954 230.707 169.85 224.007 157.452C216.593 143.732 225.601 126.336 242.837 117.397C260.074 108.458 279.589 111.899 286.426 125.082Z" fill="#FD2929" stroke="black" stroke-width="6.01926"/>
<path d="M280.509 137.058C276.651 133.682 269.413 143.597 257.844 149.596C246.275 155.596 236.945 155.338 238.555 158.759C240.525 162.945 253.027 164.758 264.596 158.759C276.164 152.759 283.823 139.957 280.509 137.058Z" fill="#CD0B0B"/>
<path d="M246.577 130.755C248.819 133.933 247.185 137.406 242.895 140.434C238.605 143.461 233.284 144.897 231.042 141.72C228.799 138.542 230.459 133.512 234.749 130.484C239.038 127.456 244.334 127.578 246.577 130.755Z" fill="white"/>
</svg>
