<svg width="560" height="315" viewBox="0 0 560 315" fill="none" xmlns="http://www.w3.org/2000/svg">
<rect width="560" height="315" fill="white"/>
<path d="M189.736 269.673V208.431H203.472V269.8C203.472 278.118 201.988 284.272 199.021 288.262C196.138 292.251 190.287 296.495 181.469 300.994L176 290.681C181.935 286.946 185.708 283.89 187.319 281.514C188.93 279.222 189.736 275.275 189.736 269.673ZM189.736 197.609V182.967H203.472V197.609H189.736Z" fill="#112A3D"/>
<path d="M215.006 209.704H228.615V260.251H231.158L243.241 209.704H253.626L265.709 260.251H268.252V208.431H281.988L280.971 272.092H256.424L248.204 231.566L240.443 272.092H217.124L215.006 209.704Z" fill="#112A3D"/>
<path d="M293.018 270.819H306.627V220.272H309.17L321.253 270.819H331.638L343.72 220.272H346.264V272.092H360L358.982 208.431H334.436L326.216 248.957L318.455 208.431H295.136L293.018 270.819Z" fill="#112A3D"/>
<path fill-rule="evenodd" clip-rule="evenodd" d="M291.954 144.831H271.047L275.655 160.558L268.974 198.277H294.027L287.346 160.558L291.954 144.831ZM217.477 162.406C226.905 156.788 237.134 152.374 247.951 149.374L261.675 198.277H217.477V162.406ZM345.525 198.277H301.048L314.793 149.303C325.705 152.304 336.022 156.744 345.525 162.406V198.277Z" fill="#112A3D"/>
<path d="M236.127 91.1057H277.325V132.861H262.85C253.496 132.861 248.819 132.861 245.247 131.04C242.104 129.439 239.549 126.884 237.948 123.741C236.127 120.168 236.127 115.491 236.127 106.137V91.1057Z" fill="#FA752A"/>
<path d="M326.874 91.1057H285.676V132.861H300.151C309.505 132.861 314.182 132.861 317.755 131.04C320.898 129.439 323.453 126.884 325.054 123.741C326.874 120.168 326.874 115.491 326.874 106.137V91.1057Z" fill="#E44B29"/>
<path fill-rule="evenodd" clip-rule="evenodd" d="M236.127 82.7549H327.014V41H262.85C253.496 41 248.819 41 245.247 42.8204C242.104 44.4217 239.549 46.9768 237.948 50.1194C236.127 53.6922 236.127 58.3692 236.127 67.7231V82.7549ZM268.481 61.7035C268.481 67.6032 263.544 72.3858 257.454 72.3858C251.364 72.3858 246.427 67.6032 246.427 61.7035C246.427 55.8038 251.364 51.0212 257.454 51.0212C263.544 51.0212 268.481 55.8038 268.481 61.7035ZM294.584 55.8926L300.29 50.1861L306.136 56.0318L311.982 50.1861L317.688 55.8926L311.843 61.7383L317.41 67.3056L311.704 73.0121L306.136 67.4448L300.569 73.0121L294.862 67.3056L300.43 61.7383L294.584 55.8926Z" fill="#EB582A"/>
</svg>
