<svg width="560" height="275" viewBox="0 0 560 275" fill="none" xmlns="http://www.w3.org/2000/svg">
<rect width="560" height="275" fill="#082A50"/>
<path d="M142.269 98.9189H162.662V136.851H173.267V88.7222H152.669L142.269 98.9189Z" fill="white"/>
<path d="M111.27 88.7222H100.666V136.851H111.27V88.7222Z" fill="white"/>
<path d="M121.671 88.7222L111.27 98.9189H131.664V136.851H142.269V98.9189V88.7222H121.671Z" fill="white"/>
<path d="M219.968 95.2484C217.317 91.3736 211.403 87.9067 204.469 87.9067C191.213 87.9067 181.22 99.1232 181.22 112.991C181.22 126.858 191.213 138.075 204.469 138.075C211.403 138.075 217.113 134.404 219.968 130.733V137.259H230.573V88.7225H219.968V95.2484ZM206.508 128.286C197.943 128.286 192.233 121.556 192.233 112.787C192.233 104.018 197.943 97.2878 206.508 97.2878C215.074 97.2878 220.784 104.018 220.784 112.787C220.988 121.556 215.074 128.286 206.508 128.286Z" fill="white"/>
<path d="M241.993 136.851H275.031V126.654H252.598V98.9189H275.031V88.7222H241.993V136.851Z" fill="white"/>
<path d="M294.404 68.5327H283.8V136.851H294.404V98.9191H317.041V136.851H327.646V88.7223H294.404V68.5327Z" fill="white"/>
<path d="M348.855 88.7222H338.251V136.851H348.855V88.7222Z" fill="white"/>
<path d="M370.268 98.9189H392.905V136.851H403.51V88.7222H380.669L370.268 98.9189Z" fill="white"/>
<path d="M359.664 88.7222V136.851H370.268V98.9189V88.7222H359.664Z" fill="white"/>
<path d="M460 111.563C460 96.0637 449.395 87.7024 436.751 87.7024C422.068 87.7024 411.667 98.511 411.667 112.786C411.667 127.47 422.272 137.871 436.751 137.871C446.948 137.871 454.494 133.588 458.776 126.654L450.619 120.944C448.172 125.227 443.481 128.286 436.751 128.286C428.798 128.286 422.476 122.983 421.864 115.234H459.796C460 113.602 460 112.786 460 111.563ZM422.476 107.484C423.903 100.346 430.225 96.6756 436.343 96.6756C442.462 96.6756 448.172 100.346 449.191 107.484H422.476Z" fill="white"/>
<path d="M338.251 80.5649L350.487 68.5327H338.251V80.5649Z" fill="white"/>
<path d="M148.387 198.848H196.515V150.719H148.387V198.848ZM158.991 160.916H185.911V188.447H158.991V160.916Z" fill="white"/>
<path d="M218.133 160.916H240.769V198.848H251.374V150.719H228.533L218.133 160.916Z" fill="white"/>
<path d="M207.528 150.719V198.848H218.133V160.916V150.719H207.528Z" fill="white"/>
<path d="M307.864 173.56C307.864 158.061 297.26 149.699 284.616 149.699C269.932 149.699 259.531 160.508 259.531 174.783C259.531 189.467 270.136 199.867 284.616 199.867C294.812 199.867 302.358 195.585 306.641 188.651L298.483 182.941C296.036 187.223 291.345 190.282 284.616 190.282C276.662 190.282 270.34 184.98 269.728 177.23H307.66C307.864 175.599 307.864 174.783 307.864 173.56ZM270.34 169.481C271.768 162.343 278.09 158.672 284.208 158.672C290.326 158.672 296.036 162.343 297.056 169.481H270.34Z" fill="white"/>
<path d="M139.617 160.916V150.719H101.074V160.916H127.585V173.152L139.617 160.916Z" fill="white"/>
<path d="M112.698 176.618L100.666 188.651V198.847H140.433V188.651H112.698V176.618Z" fill="white"/>
</svg>
